<?xml version="1.0" encoding="UTF-8" standalone="no"?>
<!-- Created with Inkscape (http://www.inkscape.org/) -->
<svg xmlns:inkscape="http://www.inkscape.org/namespaces/inkscape" xmlns:rdf="http://www.w3.org/1999/02/22-rdf-syntax-ns#" xmlns="http://www.w3.org/2000/svg" xmlns:xlink="http://www.w3.org/1999/xlink" xmlns:ns1="http://sozi.baierouge.fr" xmlns:cc="http://creativecommons.org/ns#" xmlns:sodipodi="http://sodipodi.sourceforge.net/DTD/sodipodi-0.dtd" xmlns:dc="http://purl.org/dc/elements/1.1/" id="svg2" xml:space="preserve" viewBox="0 0 36.393 42.478" version="1.1" inkscape:version="0.91 r13725">
  <defs id="defs6">
    <clipPath id="clipPath102">
      <path id="path104" d="m15.055 19.444-0.321 0.437c0.106 0.242 0.375 0.402 0.801 0.48 0.399 0.083 0.735 0.067 1-0.039 0.266-0.132 0.414-0.375 0.442-0.718 0.023-0.321-0.016-0.629-0.122-0.922-0.32-0.774-0.839-1.028-1.562-0.758-0.691 0.238-0.77 0.746-0.238 1.52z" inkscape:connector-curvature="0"/>
    </clipPath>
    <clipPath id="clipPath110">
      <path id="path112" d="m17.482-24.624h3.75v5h-3.75v-5z" inkscape:connector-curvature="0"/>
    </clipPath>
    <radialGradient id="radialGradient114" gradientUnits="userSpaceOnUse" cy="-20.45" cx="19.8" r="3.4">
      <stop id="stop116" style="stop-color:#ffffff;stop-opacity:.27840" offset="0"/>
      <stop id="stop118" style="stop-color:#ffffff;stop-opacity:.44710" offset="1"/>
    </radialGradient>
    <mask id="mask120">
      <g id="g122">
        <g id="g124" clip-path="url(#clipPath110)">
          <path id="path126" style="fill:url(#radialGradient114)" d="m17.482-24.624h3.75v5h-3.75v-5z" inkscape:connector-curvature="0"/>
        </g>
      </g>
    </mask>
    <radialGradient id="radialGradient130" gradientUnits="userSpaceOnUse" cy="-20.45" cx="19.8" r="3.4">
      <stop id="stop132" style="stop-color:#000000" offset="0"/>
      <stop id="stop134" style="stop-color:#000000" offset="1"/>
    </radialGradient>
    <clipPath id="clipPath142">
      <path id="path144" d="m8.535 13.682 0.719 0.883c0.348 0 0.547-0.016 0.601-0.043 0.161-0.024 0.266-0.161 0.321-0.399l-0.16-1.039c-0.082-0.265-0.243-0.469-0.481-0.601-0.242-0.133-0.48-0.133-0.719 0-0.187 0.082-0.296 0.242-0.32 0.48 0.027 0.32 0.039 0.559 0.039 0.719z" inkscape:connector-curvature="0"/>
    </clipPath>
    <clipPath id="clipPath150">
      <path id="path152" d="m9.9817-30.724h3.75v3.75h-3.75v-3.75z" inkscape:connector-curvature="0"/>
    </clipPath>
    <radialGradient id="radialGradient154" gradientUnits="userSpaceOnUse" cy="-27.25" cx="11.65" r="2.525">
      <stop id="stop156" style="stop-color:#ffffff;stop-opacity:.27840" offset="0"/>
      <stop id="stop158" style="stop-color:#ffffff;stop-opacity:.44710" offset="1"/>
    </radialGradient>
    <mask id="mask160">
      <g id="g162">
        <g id="g164" clip-path="url(#clipPath150)">
          <path id="path166" style="fill:url(#radialGradient154)" d="m9.9817-30.724h3.75v3.75h-3.75v-3.75z" inkscape:connector-curvature="0"/>
        </g>
      </g>
    </mask>
    <radialGradient id="radialGradient170" gradientUnits="userSpaceOnUse" cy="-27.25" cx="11.65" r="2.525">
      <stop id="stop172" style="stop-color:#000000" offset="0"/>
      <stop id="stop174" style="stop-color:#000000" offset="1"/>
    </radialGradient>
    <clipPath id="clipPath182">
      <path id="path184" d="m9.254 10.721 0.32-0.598c-0.133-0.613-0.519-0.855-1.16-0.722-0.078 0.32-0.055 0.617 0.082 0.882 0.16 0.321 0.414 0.465 0.758 0.438z" inkscape:connector-curvature="0"/>
    </clipPath>
    <clipPath id="clipPath190">
      <path id="path192" d="m9.9817-33.124h2.5v2.5h-2.5v-2.5z" inkscape:connector-curvature="0"/>
    </clipPath>
    <radialGradient id="radialGradient194" gradientUnits="userSpaceOnUse" cy="-30.95" cx="11.2" r="1.8">
      <stop id="stop196" style="stop-color:#ffffff;stop-opacity:.27840" offset="0"/>
      <stop id="stop198" style="stop-color:#ffffff;stop-opacity:.44710" offset="1"/>
    </radialGradient>
    <mask id="mask200">
      <g id="g202">
        <g id="g204" clip-path="url(#clipPath190)">
          <path id="path206" style="fill:url(#radialGradient194)" d="m9.9817-33.124h2.5v2.5h-2.5v-2.5z" inkscape:connector-curvature="0"/>
        </g>
      </g>
    </mask>
    <radialGradient id="radialGradient210" gradientUnits="userSpaceOnUse" cy="-30.95" cx="11.2" r="1.8">
      <stop id="stop212" style="stop-color:#000000" offset="0"/>
      <stop id="stop214" style="stop-color:#000000" offset="1"/>
    </radialGradient>
    <clipPath id="clipPath222">
      <path id="path224" d="m20.535 12.041 1.039-0.16c0.188-0.586 0.215-1.254 0.082-2-0.16-0.934-0.59-1.211-1.281-0.84-0.453 0.215-0.668 0.75-0.641 1.602 0.055 0.828 0.321 1.293 0.801 1.398z" inkscape:connector-curvature="0"/>
    </clipPath>
    <clipPath id="clipPath230">
      <path id="path232" d="m23.732-37.224h3.75v6.25h-3.75v-6.25z" inkscape:connector-curvature="0"/>
    </clipPath>
    <radialGradient id="radialGradient234" gradientUnits="userSpaceOnUse" cy="-31.75" cx="25.901" r="3.0111">
      <stop id="stop236" style="stop-color:#ffffff;stop-opacity:.27840" offset="0"/>
      <stop id="stop238" style="stop-color:#ffffff;stop-opacity:.44710" offset="1"/>
    </radialGradient>
    <mask id="mask240">
      <g id="g242">
        <g id="g244" clip-path="url(#clipPath230)">
          <path id="path246" style="fill:url(#radialGradient234)" d="m23.732-37.224h3.75v6.25h-3.75v-6.25z" inkscape:connector-curvature="0"/>
        </g>
      </g>
    </mask>
    <radialGradient id="radialGradient250" gradientUnits="userSpaceOnUse" cy="-31.75" cx="25.901" r="3.0111">
      <stop id="stop252" style="stop-color:#000000" offset="0"/>
      <stop id="stop254" style="stop-color:#000000" offset="1"/>
    </radialGradient>
    <clipPath id="clipPath262">
      <path id="path264" d="m9.254 22.283 0.879-0.32v-0.961c-0.024-0.348-0.156-0.625-0.399-0.84-0.375-0.371-0.679-0.414-0.918-0.117-0.242 0.211-0.296 0.598-0.16 1.156 0.133 0.563 0.332 0.922 0.598 1.082z" inkscape:connector-curvature="0"/>
    </clipPath>
    <clipPath id="clipPath270">
      <path id="path272" d="m9.9817-22.024h3.75v5h-3.75v-5z" inkscape:connector-curvature="0"/>
    </clipPath>
    <radialGradient id="radialGradient274" gradientUnits="userSpaceOnUse" cy="-17.899" cx="11.7" r="2.375">
      <stop id="stop276" style="stop-color:#ffffff;stop-opacity:.27840" offset="0"/>
      <stop id="stop278" style="stop-color:#ffffff;stop-opacity:.44710" offset="1"/>
    </radialGradient>
    <mask id="mask280">
      <g id="g282">
        <g id="g284" clip-path="url(#clipPath270)">
          <path id="path286" style="fill:url(#radialGradient274)" d="m9.9817-22.024h3.75v5h-3.75v-5z" inkscape:connector-curvature="0"/>
        </g>
      </g>
    </mask>
    <radialGradient id="radialGradient290" gradientUnits="userSpaceOnUse" cy="-17.899" cx="11.7" r="2.375">
      <stop id="stop292" style="stop-color:#000000" offset="0"/>
      <stop id="stop294" style="stop-color:#000000" offset="1"/>
    </radialGradient>
    <clipPath id="clipPath302">
      <path id="path304" d="m3.496 18.123 0.598 0.278c0.054-0.637-0.078-1.09-0.399-1.36-0.265-0.211-0.734-0.293-1.398-0.238-0.027 0.266 0.09 0.558 0.359 0.879 0.293 0.32 0.571 0.469 0.84 0.441z" inkscape:connector-curvature="0"/>
    </clipPath>
    <clipPath id="clipPath310">
      <path id="path312" d="m2.4817-24.624h3.75v3.75h-3.75v-3.75z" inkscape:connector-curvature="0"/>
    </clipPath>
    <radialGradient id="radialGradient314" gradientUnits="userSpaceOnUse" cy="-21.7" cx="3.9502" r="2.6875">
      <stop id="stop316" style="stop-color:#ffffff;stop-opacity:.27840" offset="0"/>
      <stop id="stop318" style="stop-color:#ffffff;stop-opacity:.44710" offset="1"/>
    </radialGradient>
    <mask id="mask320">
      <g id="g322">
        <g id="g324" clip-path="url(#clipPath310)">
          <path id="path326" style="fill:url(#radialGradient314)" d="m2.4817-24.624h3.75v3.75h-3.75v-3.75z" inkscape:connector-curvature="0"/>
        </g>
      </g>
    </mask>
    <radialGradient id="radialGradient330" gradientUnits="userSpaceOnUse" cy="-21.7" cx="3.9502" r="2.6875">
      <stop id="stop332" style="stop-color:#000000" offset="0"/>
      <stop id="stop334" style="stop-color:#000000" offset="1"/>
    </radialGradient>
    <clipPath id="clipPath342">
      <path id="path344" d="m3.055 12.041h0.441c0.024-0.211 0-0.426-0.082-0.64-0.133-0.211-0.293-0.293-0.48-0.239-0.051 0.16-0.012 0.453 0.121 0.879z" inkscape:connector-curvature="0"/>
    </clipPath>
    <clipPath id="clipPath350">
      <path id="path352" d="m2.4817-31.024h2.5v2.5h-2.5v-2.5z" inkscape:connector-curvature="0"/>
    </clipPath>
    <radialGradient id="radialGradient354" gradientUnits="userSpaceOnUse" cy="-28.649" cx="3.9502" r=".91250">
      <stop id="stop356" style="stop-color:#ffffff;stop-opacity:.27840" offset="0"/>
      <stop id="stop358" style="stop-color:#ffffff;stop-opacity:.44710" offset="1"/>
    </radialGradient>
    <mask id="mask360">
      <g id="g362">
        <g id="g364" clip-path="url(#clipPath350)">
          <path id="path366" style="fill:url(#radialGradient354)" d="m2.4817-31.024h2.5v2.5h-2.5v-2.5z" inkscape:connector-curvature="0"/>
        </g>
      </g>
    </mask>
    <radialGradient id="radialGradient370" gradientUnits="userSpaceOnUse" cy="-28.649" cx="3.9502" r=".91250">
      <stop id="stop372" style="stop-color:#000000" offset="0"/>
      <stop id="stop374" style="stop-color:#000000" offset="1"/>
    </radialGradient>
    <clipPath id="clipPath382">
      <path id="path384" d="m4.977 6.123 1.156 0.438c0-0.266 0.015-0.746 0.043-1.438-0.055-0.535-0.321-0.722-0.801-0.562-0.348 0.109-0.574 0.336-0.68 0.683-0.082 0.317-0.066 0.653 0.039 1l0.243-0.121z" inkscape:connector-curvature="0"/>
    </clipPath>
    <clipPath id="clipPath390">
      <path id="path392" d="m4.9817-40.325h3.75v3.75h-3.75v-3.75z" inkscape:connector-curvature="0"/>
    </clipPath>
    <radialGradient id="radialGradient394" gradientUnits="userSpaceOnUse" cy="-37.05" cx="6.7505" r="2.3625">
      <stop id="stop396" style="stop-color:#ffffff;stop-opacity:.27840" offset="0"/>
      <stop id="stop398" style="stop-color:#ffffff;stop-opacity:.44710" offset="1"/>
    </radialGradient>
    <mask id="mask400">
      <g id="g402">
        <g id="g404" clip-path="url(#clipPath390)">
          <path id="path406" style="fill:url(#radialGradient394)" d="m4.9817-40.325h3.75v3.75h-3.75v-3.75z" inkscape:connector-curvature="0"/>
        </g>
      </g>
    </mask>
    <radialGradient id="radialGradient410" gradientUnits="userSpaceOnUse" cy="-37.05" cx="6.7505" r="2.3625">
      <stop id="stop412" style="stop-color:#000000" offset="0"/>
      <stop id="stop414" style="stop-color:#000000" offset="1"/>
    </radialGradient>
    <clipPath id="clipPath422">
      <path id="path424" d="m18.297 24.201 0.16 0.442c0.691-0.16 1.039-0.907 1.039-2.242 0-0.317-0.027-0.504-0.082-0.559-0.051-0.078-0.226-0.133-0.519-0.16-0.801-0.078-1.2 0.199-1.2 0.84 0 0.535 0.2 1.093 0.602 1.679z" inkscape:connector-curvature="0"/>
    </clipPath>
    <clipPath id="clipPath430">
      <path id="path432" d="m21.232-20.224h3.75v5h-3.75v-5z" inkscape:connector-curvature="0"/>
    </clipPath>
    <radialGradient id="radialGradient434" gradientUnits="userSpaceOnUse" cy="-15.75" cx="23.25" r="2.75">
      <stop id="stop436" style="stop-color:#ffffff;stop-opacity:.27840" offset="0"/>
      <stop id="stop438" style="stop-color:#ffffff;stop-opacity:.44710" offset="1"/>
    </radialGradient>
    <mask id="mask440">
      <g id="g442">
        <g id="g444" clip-path="url(#clipPath430)">
          <path id="path446" style="fill:url(#radialGradient434)" d="m21.232-20.224h3.75v5h-3.75v-5z" inkscape:connector-curvature="0"/>
        </g>
      </g>
    </mask>
    <radialGradient id="radialGradient450" gradientUnits="userSpaceOnUse" cy="-15.75" cx="23.25" r="2.75">
      <stop id="stop452" style="stop-color:#000000" offset="0"/>
      <stop id="stop454" style="stop-color:#000000" offset="1"/>
    </radialGradient>
    <clipPath id="clipPath462">
      <path id="path464" d="m21.254 18.123 0.601 0.598c0.106-0.293 0.172-0.664 0.2-1.117 0.027-0.586-0.094-0.868-0.36-0.84-0.242 0.051-0.386 0.238-0.441 0.558v0.801z" inkscape:connector-curvature="0"/>
    </clipPath>
    <clipPath id="clipPath470">
      <path id="path472" d="m26.232-24.724h2.5v3.75h-2.5v-3.75z" inkscape:connector-curvature="0"/>
    </clipPath>
    <radialGradient id="radialGradient474" gradientUnits="userSpaceOnUse" cy="-21.75" cx="27.05" r="1.2875">
      <stop id="stop476" style="stop-color:#ffffff;stop-opacity:.27840" offset="0"/>
      <stop id="stop478" style="stop-color:#ffffff;stop-opacity:.44710" offset="1"/>
    </radialGradient>
    <mask id="mask480">
      <g id="g482">
        <g id="g484" clip-path="url(#clipPath470)">
          <path id="path486" style="fill:url(#radialGradient474)" d="m26.232-24.724h2.5v3.75h-2.5v-3.75z" inkscape:connector-curvature="0"/>
        </g>
      </g>
    </mask>
    <radialGradient id="radialGradient490" gradientUnits="userSpaceOnUse" cy="-21.75" cx="27.05" r="1.2875">
      <stop id="stop492" style="stop-color:#000000" offset="0"/>
      <stop id="stop494" style="stop-color:#000000" offset="1"/>
    </radialGradient>
    <clipPath id="clipPath502">
      <path id="path504" d="m23.055 15.002v1.039c0.933-0.32 1.32-0.824 1.16-1.519-0.055-0.293-0.094-0.453-0.121-0.481-0.051-0.078-0.184-0.105-0.399-0.078-0.242 0.027-0.429 0.16-0.562 0.398-0.106 0.188-0.133 0.403-0.078 0.641z" inkscape:connector-curvature="0"/>
    </clipPath>
    <clipPath id="clipPath510">
      <path id="path512" d="m28.732-29.224h2.5v5h-2.5v-5z" inkscape:connector-curvature="0"/>
    </clipPath>
    <radialGradient id="radialGradient514" gradientUnits="userSpaceOnUse" cy="-25.25" cx="29.55" r="1.9">
      <stop id="stop516" style="stop-color:#ffffff;stop-opacity:.27840" offset="0"/>
      <stop id="stop518" style="stop-color:#ffffff;stop-opacity:.44710" offset="1"/>
    </radialGradient>
    <mask id="mask520">
      <g id="g522">
        <g id="g524" clip-path="url(#clipPath510)">
          <path id="path526" style="fill:url(#radialGradient514)" d="m28.732-29.224h2.5v5h-2.5v-5z" inkscape:connector-curvature="0"/>
        </g>
      </g>
    </mask>
    <radialGradient id="radialGradient530" gradientUnits="userSpaceOnUse" cy="-25.25" cx="29.55" r="1.9">
      <stop id="stop532" style="stop-color:#000000" offset="0"/>
      <stop id="stop534" style="stop-color:#000000" offset="1"/>
    </radialGradient>
  </defs>
  <g id="g10" transform="matrix(1.25 0 0 -1.25 0 42.478)">
    <g id="g12">
      <path id="path14" style="fill-rule:evenodd;fill:#81675c" d="m19.656 31.643c0.532-0.426 0.852-0.785 0.957-1.082 0.082-0.211 0.121-0.559 0.121-1.039 0.133-0.614 0.426-1.547 0.879-2.801 0.137-0.453 0.43-1.211 0.883-2.277 0.692-1.653 1.52-3 2.481-4.043 0.293-0.344 0.585-0.852 0.878-1.52 0.348-0.773 0.614-1.293 0.801-1.559 0.266-0.347 0.614-0.761 1.039-1.238 0.348-0.43 0.571-0.933 0.68-1.523 0.055-0.293 0.266-1 0.641-2.117 0.265-0.801 0-1.629-0.801-2.481-0.055-0.055-0.281-0.242-0.68-0.562-0.265-0.184-0.414-0.426-0.441-0.719-0.051-0.426-0.039-1.106 0.039-2.039-0.106-0.828-0.492-1.68-1.156-2.559-0.375-0.43-0.602-0.683-0.684-0.762-0.238-0.214-0.52-0.347-0.84-0.398h-4.797c-1.176 0-2.203-0.215-3.082-0.641l-1.32-0.761c-0.266-0.161-0.801-0.481-1.598-0.961-0.722-0.399-1.297-0.586-1.722-0.559-0.133 0-0.36 0.055-0.68 0.16-0.344 0.133-0.57 0.215-0.68 0.239l-1.679 0.441c-0.188 0.055-0.536 0.121-1.04 0.199-0.48 0.055-0.839 0.137-1.082 0.242-0.691 0.321-1.277 0.891-1.757 1.719-0.508 1.016-0.934 1.774-1.282 2.281-0.265 0.371-0.613 0.653-1.039 0.84-0.8 0.399-1.215 0.598-1.242 0.598-0.344 0.242-0.73 0.773-1.16 1.601-0.293 0.559-0.359 1.067-0.199 1.52 0.265 0.508 0.468 0.922 0.601 1.242 0.188 0.399 0.188 1.09 0 2.078-0.242 1.309-0.359 2.082-0.359 2.321 0.023 0.347 0.105 0.652 0.238 0.918 0.215 0.296 0.375 0.562 0.481 0.8 0.586 1.309 1.093 2.266 1.519 2.883 0.348 0.504 1.055 1.238 2.121 2.199 0.641 0.504 1.078 1.172 1.321 2 0.343 1.012 0.824 1.918 1.437 2.719 0.961 1.625 1.762 2.762 2.402 3.399 0.266 0.269 0.692 0.574 1.278 0.921 1.176 0.696 1.922 1.149 2.242 1.36l2.719 1.121c0.347 0.16 0.629 0.215 0.84 0.16 0.16-0.055 0.386-0.227 0.679-0.519 0.242-0.266 0.563-0.563 0.961-0.883 0.16-0.16 0.52-0.465 1.082-0.918z" inkscape:connector-curvature="0"/>
      <path id="path16" style="fill-rule:evenodd;fill:#aa907d" d="m16.977 28.322c1.199 0.215 2 0.707 2.398 1.481 0.238 0.426 0.398 1 0.48 1.719l0.278-0.278c-0.051-0.054-0.078-0.297-0.078-0.722 0-0.211-0.055-0.559-0.16-1.039l-0.36-0.321c-0.375-0.668-1.027-1.078-1.961-1.238-1.121-0.055-1.933-0.137-2.441-0.242-0.852-0.215-1.383-0.531-1.598-0.961-0.16-0.344-0.16-1.039 0-2.078 0.133 0.133 0.266 0.332 0.399 0.601 0.132 0.293 0.242 0.52 0.32 0.68-0.051-0.375-0.121-0.629-0.199-0.762-0.16-0.32-0.414-0.601-0.762-0.84-0.211-0.132-0.559-0.304-1.039-0.519-0.481-0.242-0.774-0.414-0.879-0.52-0.242-0.187-0.375-0.441-0.398-0.761v-0.879c0-0.348-0.043-0.641-0.122-0.879-0.265-0.774-0.722-1.403-1.359-1.883-0.32-0.211-0.922-0.504-1.801-0.879-0.828-0.32-1.429-0.641-1.8-0.961-0.454-0.398-0.84-1-1.161-1.797l0.2 0.68c0.16 0.398 0.441 0.758 0.839 1.078 0.668 0.719 1.204 1.172 1.602 1.359l-1.039 0.282c-0.109-0.082-0.32-0.215-0.641-0.399-0.265-0.136-0.468-0.269-0.601-0.402-0.133-0.16-0.239-0.371-0.321-0.641-0.05-0.16-0.132-0.414-0.238-0.757-0.082-0.243-0.199-0.415-0.359-0.52-0.082-0.027-0.293-0.094-0.641-0.203-0.773-0.106-1.226-0.25-1.359-0.438-0.16-0.187-0.227-0.519-0.199-1 0.023-0.293 0.05-0.668 0.078-1.121 0-1.093 0.011-1.707 0.039-1.84 0.082 0.106 0.133 0.305 0.16 0.602 0.027 0.398 0.039 0.625 0.039 0.68 0.215 0.824 0.402 1.32 0.562 1.48 0.161 0.16 0.415 0.25 0.758 0.277 0.348 0.028 0.586 0.11 0.723 0.243 0.098 0.058 0.164 0.125 0.199 0.199-0.613-1.559-0.949-2.637-1-3.242-0.082-1.039 0.078-2 0.481-2.879l-0.762 0.359c-0.426 0.028-0.547-0.199-0.359-0.68 0.16-0.425 0.371-0.691 0.64-0.8 0.293-0.133 0.465-0.078 0.52 0.16v0.801c0.187-0.399 0.398-0.758 0.64-1.078 0.559-0.829 0.707-1.586 0.438-2.282-0.078-0.187-0.211-0.32-0.399-0.398-0.027 0-0.214-0.055-0.558-0.16l-0.563 0.84c0 0.503-0.027 0.824-0.078 0.957-0.082 0.269-0.32 0.656-0.719 1.16l-0.402 0.961c-0.187 0.375-0.371 0.961-0.559 1.761l0.079 2.2c-0.106 1.011-0.184 1.812-0.239 2.398-0.054 1.066 0.106 1.828 0.481 2.281 0.238 0.266 0.64 0.586 1.199 0.961 0.613 0.371 1.027 0.664 1.238 0.879 0.563 0.559 0.817 1.227 0.762 2-0.453 0.082-0.895 0.082-1.32 0-0.399-0.105-0.762-0.226-1.078-0.359l0.918 0.918c0.585 0.215 1.066 0.468 1.441 0.761 0.531 0.348 1.012 0.868 1.437 1.559 0.375 0.828 0.68 1.48 0.922 1.961 0.426 0.906 0.852 1.402 1.282 1.48 0.238 0.028 0.597-0.027 1.078-0.16 0.347-0.027 0.695 0.016 1.039 0.121 0.199 0.047 0.465 0.168 0.801 0.36-0.129-0.168-0.567-0.766-1.321-1.801-0.32-0.398-0.89-0.918-1.719-1.559-0.695-0.562-1.132-0.894-1.32-1-0.64-0.32-1.027-0.535-1.16-0.64 0.453-0.082 1.199 0.093 2.238 0.519-0.238-0.371-0.386-0.801-0.437-1.281 0.238 0.508 0.773 0.855 1.597 1.043 1.043 0.211 1.629 0.613 1.762 1.199l-1.199-0.281h-0.402c0.535 0.402 0.921 0.746 1.16 1.039 0.562 0.773 1 1.348 1.32 1.723 0.508 0.64 1.055 1.05 1.641 1.238 0.558 0.16 1.535 0.32 2.922 0.48z" inkscape:connector-curvature="0"/>
      <path id="path18" style="fill-rule:evenodd;fill:#aa907d" d="m11.773 28.682c0.422 0.027 1.063 0.133 1.922 0.32-0.394-0.098-0.902-0.457-1.519-1.078-0.375-0.055-0.735-0.016-1.082 0.121-0.371 0.133-0.641 0.316-0.801 0.559l-0.117 0.16c0.187-0.16 0.719-0.188 1.597-0.082z" inkscape:connector-curvature="0"/>
      <path id="path20" style="fill-rule:evenodd;fill:#8c8d8a" d="m13.055 16.885c-0.828-0.375-1.387-0.774-1.68-1.203-0.266-0.371-0.398-1-0.398-1.879v-1.961c0.05-0.398 0.293-0.984 0.718-1.758 0.481-0.855 0.867-1.242 1.16-1.16l2.122-1.48c0.265 0.027 0.558 0 0.878-0.083 0.426-0.078 0.625-0.226 0.598-0.437 0.082 0.453-0.078 0.934-0.476 1.437-0.293 0.43-0.668 0.774-1.122 1.043-0.933 0.532-1.695 1.293-2.281 2.278-0.265 0.453-0.453 0.855-0.558 1.203-0.082 0.344-0.106 0.797-0.082 1.359 0 1.278 0.375 2.157 1.121 2.641zm7.281 8.437c0.211 0.266 0.348 0.493 0.398 0.68 0.161 0.375 0.227 0.867 0.2 1.481-0.051 0.718-0.079 1.238-0.079 1.558v0.043l0.559-1.801-0.039-0.121c0-0.293 0.012-0.718 0.039-1.281 0-0.504-0.066-0.918-0.199-1.238-0.426-1.039-0.988-1.813-1.68-2.321-2.242-1.519-3.574-2.8-4-3.839-0.187-0.508-0.281-1.122-0.281-1.84v-0.922c-0.027-0.266-0.051-0.41-0.078-0.438 0-0.054-0.11-0.148-0.321-0.281-0.027-0.027-0.16-0.094-0.402-0.199-0.133-0.055-0.226-0.149-0.277-0.281-0.055-0.161-0.055-0.36 0-0.598 0.051-0.137 0.133-0.309 0.238-0.523 0.106-0.266 0.242-0.653 0.402-1.157 0.133-0.429 0.317-0.773 0.559-1.043 0.055 0.266 0.039 0.68-0.039 1.243-0.082 0.558-0.109 0.972-0.082 1.238 0.402 0.027 0.641 0.105 0.723 0.242 0.05 0.078 0.078 0.344 0.078 0.797 0 1.094 0.172 1.949 0.519 2.562 0.293 0.532 0.52 0.852 0.68 0.961 0.348 0.078 0.613 0.157 0.801 0.239 0.906 0.265 1.492 0.464 1.761 0.601 1.172 0.559 1.864 1.746 2.079 3.559 0.187 0.851 0.281 1.535 0.281 2.039v0.562l0.679-1.562c-0.027-0.613-0.148-1.332-0.359-2.16-0.269-0.801-0.375-1.399-0.32-1.801 0-0.078 0.066-0.41 0.199-1 0.078-0.399 0.105-0.746 0.078-1.039-0.078-0.453-0.117-0.895-0.117-1.321-0.027-0.48 0.039-0.878 0.199-1.199 0.426-0.668 0.692-1.199 0.801-1.601 0.184-0.586 0.613-1.051 1.277-1.399 0.403-0.187 1-0.441 1.801-0.761 0.586-0.293 1.094-0.731 1.52-1.317v-0.402c-0.106-0.106-0.278-0.227-0.52-0.36-0.187-0.16-0.293-0.347-0.32-0.558-0.028 0.586 0.054 1.16 0.242 1.719-1.043 0-1.828 0.066-2.359 0.199l-1.043 0.32c-0.106 0.027-0.278 0.133-0.52 0.32-0.238 0.133-0.426 0.215-0.559 0.239 0.211-0.532 0.641-0.907 1.278-1.117 1.043-0.348 1.59-0.536 1.64-0.563 0.403-0.266 0.629-0.785 0.68-1.559 0.055-0.425 0.055-1.027 0-1.8 0-0.801-0.023-1.399-0.078-1.801l-0.398-0.637c-0.375-0.43-0.602-0.683-0.684-0.762-0.238-0.214-0.52-0.347-0.84-0.398h-0.519c-0.266 0.078-0.414 0.117-0.438 0.117 0.371 0.055 0.957 0.68 1.758 1.883 0.348 0.531 0.519 1.371 0.519 2.52 0.028 0.371 0.043 0.664 0.043 0.878 0 0.375-0.054 0.653-0.16 0.84-0.109 0.188-0.32 0.332-0.64 0.442-0.348 0.05-0.602 0.117-0.762 0.199-0.531 0.16-0.918 0.293-1.16 0.398-0.426 0.188-0.758 0.426-1 0.723-0.293 0.344-0.438 0.957-0.438 1.84 0.133 1.039 0.199 1.851 0.199 2.437 0 1.043-0.335 1.696-1 1.961-0.48 0.188-0.933-0.093-1.359-0.84-0.348-0.613-0.562-1.214-0.641-1.8-0.082-0.641-0.121-1.641-0.121-3-0.027-0.426 0.016-0.758 0.121-1 0.106-0.239 0.333-0.481 0.68-0.719 0.559-0.426 1.36-1.133 2.399-2.121 0.375-0.293 0.988-0.653 1.839-1.078 0.43-0.27 0.668-0.469 0.723-0.602 0.106-0.215 0.039-0.492-0.203-0.84-0.238-0.371-0.664-0.867-1.277-1.48-0.266-0.348-0.403-0.598-0.403-0.758l-3.84-0.043c0.215 0.348 0.454 0.668 0.723 0.961 0.504 0.559 0.813 0.961 0.918 1.199 0.242 0.453 0.215 0.906-0.078 1.36-0.242 0.375-0.629 0.761-1.16 1.16-0.614 0.402-1.067 0.707-1.36 0.922 0.692-0.747 1.039-1.493 1.039-2.239v-0.843c-0.027-0.266-0.121-0.504-0.281-0.719-0.16-0.238-0.597-0.625-1.32-1.16-0.399-0.293-0.895-0.852-1.481-1.68l-1.519-0.879-1.52-0.039c0.746 0.32 1.348 0.773 1.801 1.359 0.106 0.106 0.281 0.371 0.52 0.801 0.187 0.344 0.386 0.586 0.601 0.719 0.106 0.078 0.278 0.121 0.52 0.121 0.265 0.023 0.453 0.066 0.558 0.117 0.426 0.242 0.547 1.11 0.36 2.602-0.399-0.055-1.145 0.215-2.239 0.801-0.242 0.105-0.679 0.238-1.32 0.398-0.586 0.133-1.027 0.281-1.32 0.441-0.375 0.184-0.801 0.504-1.281 0.961-0.211 0.184-0.399 0.453-0.559 0.797-0.242 0.481-0.387 0.762-0.441 0.84-0.348 0.508-0.559 0.973-0.641 1.402-0.105 0.426-0.066 0.934 0.121 1.52 0.106 0.371 0.188 0.641 0.242 0.801 0.078 0.265 0.211 0.492 0.399 0.679l1.32 1.36c0.348 0.375 0.934 1.093 1.758 2.16 0.722 0.933 1.336 1.641 1.844 2.121 0.718 0.637 1.519 1.211 2.398 1.719 0.375 0.187 0.652 0.332 0.84 0.441 0.293 0.16 0.535 0.317 0.719 0.477 0.132 0.109 0.293 0.281 0.48 0.523 0.215 0.317 0.348 0.504 0.402 0.559 0.211 0.293 0.387 0.519 0.52 0.679z" inkscape:connector-curvature="0"/>
      <path id="path22" style="fill-rule:evenodd;fill:#464d53" d="m21.414 27.283 0.762-2.039v-0.562c0-0.504-0.094-1.184-0.281-2.039-0.215-1.813-0.907-3-2.079-3.559-0.269-0.133-0.855-0.336-1.761-0.601-0.188-0.079-0.453-0.161-0.801-0.239-0.16-0.109-0.387-0.425-0.68-0.961-0.347-0.613-0.519-1.464-0.519-2.558 0-0.453-0.028-0.723-0.078-0.801-0.082-0.133-0.321-0.215-0.723-0.242-0.027-0.266 0-0.68 0.082-1.238 0.078-0.559 0.094-0.973 0.039-1.243-0.242 0.27-0.426 0.618-0.559 1.043-0.16 0.504-0.296 0.891-0.402 1.16-0.105 0.211-0.187 0.387-0.238 0.52-0.055 0.238-0.055 0.437 0 0.598 0.051 0.136 0.144 0.226 0.277 0.281 0.242 0.105 0.375 0.172 0.402 0.199 0.211 0.133 0.321 0.227 0.321 0.281 0.027 0.028 0.051 0.172 0.078 0.442v0.918c0 0.718 0.094 1.336 0.281 1.84 0.426 1.039 1.758 2.32 4 3.839 0.692 0.508 1.254 1.282 1.68 2.321 0.133 0.32 0.199 0.734 0.199 1.242-0.027 0.559-0.039 0.984-0.039 1.277l0.039 0.121z" inkscape:connector-curvature="0"/>
      <path id="path24" style="fill-rule:evenodd;fill:#464d53" d="m19.176 7.561c0.531-0.399 0.918-0.785 1.16-1.16 0.293-0.454 0.32-0.907 0.078-1.36-0.105-0.238-0.414-0.64-0.918-1.199-0.269-0.293-0.508-0.613-0.723-0.961-0.664-0.027-1.398-0.227-2.199-0.598l-0.801-0.441c0.586 0.828 1.082 1.387 1.481 1.68 0.723 0.535 1.16 0.922 1.32 1.16 0.16 0.215 0.254 0.453 0.281 0.719v0.843c0 0.746-0.347 1.492-1.039 2.239 0.293-0.215 0.746-0.52 1.36-0.922z" inkscape:connector-curvature="0"/>
      <path id="path26" style="fill-rule:evenodd;fill:#464d53" d="m23.414 11.322c0.242-0.187 0.414-0.293 0.52-0.32l1.043-0.32c0.531-0.133 1.316-0.199 2.359-0.199-0.188-0.559-0.27-1.133-0.242-1.719v-0.082c-0.051-0.426-0.039-1.106 0.039-2.039-0.106-0.668-0.36-1.309-0.758-1.922 0.055 0.402 0.078 1 0.078 1.801 0.055 0.773 0.055 1.375 0 1.8-0.051 0.774-0.277 1.293-0.68 1.559-0.05 0.027-0.597 0.215-1.64 0.563-0.637 0.21-1.067 0.585-1.278 1.117 0.133-0.024 0.321-0.106 0.559-0.239z" inkscape:connector-curvature="0"/>
      <path id="path28" style="fill-rule:evenodd;fill:#56443d" d="m7.535 15.604c0.399 0.343 0.906 0.679 1.52 1 0.523 0.25 0.953 0.465 1.3 0.64-1-0.593-1.953-1.593-2.859-3-0.32-0.562-0.414-1.308-0.281-2.242 0.105-0.828 0.347-1.547 0.719-2.16 0.347-0.559 0.961-1.066 1.839-1.52 1.043-0.507 1.723-0.933 2.043-1.281l0.559-0.68c0.187-0.265 0.426-0.453 0.719-0.558 0.828-0.32 1.629-0.188 2.402 0.398-0.375-0.746-0.828-1.265-1.363-1.558-0.293-0.188-0.731-0.321-1.317-0.399-0.668-0.082-1.136-0.175-1.402-0.281-0.453-0.16-0.879-0.469-1.281-0.922-0.477-0.558-0.586-1.039-0.317-1.437 0.079-0.11 0.25-0.215 0.52-0.321 0.16-0.054 0.371-0.121 0.641-0.199 0.265-0.109 0.757-0.16 1.476-0.16l1.801 0.039c-1.066-0.668-1.84-0.988-2.32-0.961-0.133 0-0.36 0.055-0.68 0.16-0.344 0.133-0.57 0.215-0.68 0.239l-1.679 0.441c-0.188 0.055-0.536 0.121-1.04 0.199-0.48 0.055-0.839 0.137-1.082 0.242-0.398 0.161-0.785 0.453-1.16 0.879l0.84 0.481c0.215 0.105 0.75 0.492 1.602 1.16 0.375 0.293 0.613 0.598 0.718 0.918 0.055 0.187 0.082 0.574 0.082 1.16 0 0.402-0.054 0.695-0.16 0.883-0.109 0.211-0.32 0.437-0.64 0.68-0.989 0.8-1.785 1.597-2.399 2.398-0.429 0.508-0.656 1.094-0.679 1.762-0.028 0.64 0.144 1.265 0.519 1.879 0.531 0.718 1.211 1.425 2.039 2.121z" inkscape:connector-curvature="0"/>
      <path id="path30" style="fill-rule:evenodd;fill:#56443d" d="m0.297 10.322 0.039-2.121-0.039 0.121c-0.348 0.696-0.348 1.36 0 2z" inkscape:connector-curvature="0"/>
      <path id="path32" style="fill-rule:evenodd;fill:#56443d" d="m4.254 18.963c-0.078-0.082-0.32-0.227-0.719-0.441-0.695-0.293-1.453-0.961-2.281-2-0.426-0.481-0.707-1.121-0.84-1.918l-0.078 0.879c0.023 0.347 0.105 0.652 0.238 0.918 0.215 0.296 0.375 0.562 0.481 0.8l0.961 1.922 0.558 0.278c0.719 0.347 1.336 0.48 1.84 0.402 0.082-0.348 0.027-0.625-0.16-0.84z" inkscape:connector-curvature="0"/>
      <path id="path34" style="fill-rule:evenodd;fill:#56443d" d="m1.613 10.924c0.02 0.543 0.032 0.996 0.043 1.359 0.004-0.652 0.071-1.32 0.199-2 0.188-0.8 0.372-1.386 0.559-1.761l0.402-0.961 0.317-1.399 0.043-0.32c-0.16 0.133-0.414 0.281-0.762 0.441-0.426 0.161-0.734 0.305-0.918 0.438 0.184-0.051 0.332-0.039 0.438 0.043 0.242 0.183 0.265 0.57 0.082 1.16-0.215 0.613-0.336 1-0.36 1.16-0.054 0.453-0.066 1.067-0.043 1.84z" inkscape:connector-curvature="0"/>
      <path id="path36" style="fill-rule:evenodd;fill:#56443d" d="m24.734 18.123c0.696-1.226 1.309-1.867 1.84-1.922 0.055-0.48-0.027-1.172-0.238-2.078-0.055-0.535 0.078-0.867 0.398-1 0.133-0.054 0.536-0.082 1.2-0.082 0.375 0 0.695-0.066 0.961-0.199l0.121-0.398c0.265-0.801 0-1.629-0.801-2.481l-0.281-0.281-0.039 1.719c-1.282 0.347-2.172 0.707-2.68 1.082-0.266 0.214-0.399 0.586-0.399 1.121 0.024 0.613 0.039 1.05 0.039 1.32 0 0.637-0.027 1.039-0.082 1.199-0.293 0.586-0.503 1.028-0.64 1.321-0.344 0.558-0.559 1-0.637 1.32-0.055 0.238-0.043 0.746 0.039 1.519-0.027-0.347 0.121-0.734 0.442-1.16 0.156-0.238 0.41-0.574 0.757-1z" inkscape:connector-curvature="0"/>
      <path id="path38" style="fill-rule:evenodd;fill:#a18277" d="m14.977 32.924c0.105 0.051 0.359 0.238 0.757 0.559 0.375 0.265 0.653 0.425 0.84 0.48 0.321 0.027 0.668-0.148 1.039-0.519 0.242-0.266 0.563-0.563 0.961-0.883 0.188-0.184 0.614-0.532 1.281-1.039-0.082-0.719-0.242-1.293-0.48-1.719-0.398-0.774-1.199-1.266-2.398-1.481-1.387-0.16-2.364-0.32-2.922-0.48-0.586-0.188-1.133-0.598-1.641-1.238-0.32-0.375-0.758-0.95-1.32-1.723-0.239-0.293-0.625-0.637-1.16-1.039-0.532-0.027-0.973-0.254-1.321-0.68-1.039-0.426-1.785-0.601-2.238-0.519 0.133 0.105 0.52 0.32 1.16 0.64 0.188 0.106 0.625 0.438 1.32 1 0.829 0.641 1.399 1.161 1.719 1.559 0.856 1.176 1.309 1.785 1.36 1.84h0.043l0.437 0.281-0.238-0.039c0.617 0.617 1.125 0.977 1.519 1.078-0.859-0.187-1.5-0.293-1.922-0.32-0.878-0.106-1.414-0.078-1.597 0.082-0.11 0.293-0.067 0.637 0.117 1.039l0.562 0.961c0.266 0.426 0.625 0.707 1.079 0.84 0.64 0.16 1.187 0.359 1.64 0.597l1.403 0.723z" inkscape:connector-curvature="0"/>
      <path id="path40" style="fill-rule:evenodd;fill:#cbbcb0" d="m16.453 33.924c-0.183-0.082-0.422-0.23-0.719-0.441-0.398-0.321-0.652-0.508-0.757-0.559l-1.403-0.723c-0.453-0.238-1-0.437-1.64-0.597-0.454-0.137-0.813-0.414-1.079-0.84l-0.562-0.961c-0.184-0.402-0.227-0.746-0.117-1.039l0.117-0.16c0.16-0.243 0.43-0.43 0.801-0.563 0.347-0.133 0.707-0.172 1.082-0.117l0.238 0.039-0.437-0.281c-0.375-0.215-0.668-0.348-0.883-0.399-0.348-0.109-0.692-0.148-1.039-0.121-0.481 0.133-0.84 0.188-1.078 0.16-0.43-0.078-0.856-0.574-1.282-1.48-0.242-0.481-0.547-1.133-0.922-1.961-0.425-0.691-0.906-1.211-1.437-1.559-0.375-0.293-0.856-0.546-1.441-0.761l0.8 0.722c0.641 0.504 1.078 1.172 1.321 2 0.343 1.012 0.824 1.918 1.437 2.719 0.961 1.625 1.762 2.762 2.402 3.399 0.266 0.269 0.692 0.574 1.278 0.921 1.176 0.696 1.922 1.149 2.242 1.36l3.078 1.242z" inkscape:connector-curvature="0"/>
      <path id="path42" style="fill-rule:evenodd;fill:#cbbcb0" d="m19.535 29.162 0.641 0.559c-0.055-0.16-0.11-0.387-0.16-0.68-0.055-0.32-0.121-0.547-0.2-0.68-0.109-0.265-0.296-0.531-0.562-0.8-0.664-0.664-1.332-1.012-2-1.039-0.16-0.028-0.57-0.012-1.238 0.039-0.508 0.027-0.883 0-1.121-0.078-0.239-0.082-0.454-0.266-0.641-0.559-0.078-0.16-0.188-0.387-0.32-0.68-0.133-0.269-0.266-0.468-0.399-0.601-0.16 1.039-0.16 1.734 0 2.078 0.215 0.43 0.746 0.75 1.598 0.961 0.508 0.105 1.32 0.187 2.441 0.242 0.934 0.16 1.586 0.57 1.961 1.238z" inkscape:connector-curvature="0"/>
      <path id="path44" style="fill-rule:evenodd;fill:#cbbcb0" d="m8.613 23.162c0.348 0.426 0.789 0.653 1.321 0.68h0.402l1.199 0.281c-0.133-0.586-0.719-0.988-1.762-1.199-0.824-0.188-1.359-0.535-1.597-1.043 0.051 0.48 0.199 0.91 0.437 1.281z" inkscape:connector-curvature="0"/>
      <path id="path46" style="fill-rule:evenodd;fill:#cbbcb0" d="m5.773 17.002c-0.398-0.32-0.679-0.68-0.839-1.078l-0.2-0.68-0.16-0.363c-0.027-0.105-0.105-0.199-0.238-0.277-0.137-0.137-0.375-0.215-0.723-0.243-0.347-0.027-0.597-0.117-0.758-0.277-0.16-0.16-0.347-0.656-0.562-1.48 0-0.055-0.012-0.282-0.039-0.68-0.027-0.297-0.078-0.496-0.16-0.602-0.028 0.133-0.039 0.747-0.039 1.84-0.028 0.453-0.055 0.828-0.078 1.121-0.028 0.481 0.039 0.813 0.199 1 0.133 0.184 0.586 0.332 1.359 0.438 0.348 0.109 0.559 0.176 0.641 0.203 0.16 0.105 0.277 0.277 0.359 0.52 0.106 0.347 0.188 0.597 0.238 0.757 0.082 0.266 0.188 0.481 0.321 0.641 0.133 0.133 0.336 0.266 0.601 0.402 0.321 0.184 0.532 0.317 0.641 0.399l1.039-0.282c-0.398-0.183-0.934-0.64-1.602-1.359z" inkscape:connector-curvature="0"/>
      <path id="path48" style="fill-rule:evenodd;fill:#cbbcb0" d="m3.535 7.561c-0.265 0.109-0.48 0.375-0.64 0.8-0.188 0.481-0.067 0.708 0.359 0.68l0.762-0.359 0.039-0.039v-0.918c-0.055-0.242-0.227-0.297-0.52-0.164z" inkscape:connector-curvature="0"/>
      <path id="path50" style="fill-rule:evenodd;fill:#464d53" d="m11.695 10.084c-0.425 0.774-0.668 1.36-0.718 1.758v1.961c0 0.879 0.132 1.508 0.398 1.879 0.293 0.429 0.855 0.828 1.68 1.203-0.746-0.481-1.121-1.363-1.121-2.641-0.024-0.562 0-1.015 0.082-1.359 0.105-0.348 0.293-0.75 0.558-1.203 0.586-0.985 1.348-1.746 2.281-2.278 0.454-0.269 0.829-0.613 1.122-1.043 0.398-0.503 0.558-0.984 0.48-1.437 0.027 0.211-0.176 0.359-0.602 0.437-0.32 0.083-0.613 0.11-0.878 0.083l-2.122 1.48c-0.293-0.082-0.679 0.305-1.16 1.16z" inkscape:connector-curvature="0"/>
      <path id="path52" style="fill-rule:evenodd;fill:#92766b" d="m17.297 32.483c0.183 0.027 0.32 0.093 0.398 0.199 0.028 0.027 0.121 0.16 0.282 0.402l0.597-0.523c0.055-0.106 0.133-0.172 0.242-0.2-0.402-0.48-0.867-0.718-1.402-0.718h-1.039c-0.559 0-0.961-0.094-1.199-0.282-0.293-0.371-0.563-0.597-0.801-0.679-0.082-0.028-0.32-0.012-0.719 0.039l-0.922-0.078c-0.347-0.028-0.574-0.067-0.679-0.121-0.188-0.106-0.36-0.266-0.52-0.481-0.453-0.613-0.695-0.945-0.719-1l-0.043-0.437c-0.183 0-0.386 0.05-0.597 0.16l-0.043 0.199 0.762 1c0.507 0.719 0.906 1.148 1.199 1.281l0.441 0.2c0.133 0.05 0.254 0.066 0.36 0.039 0.054-0.028 0.171-0.082 0.359-0.161 0.43-0.16 0.828-0.027 1.199 0.399 0.457 0.48 0.801 0.75 1.043 0.801l1.801-0.039z" inkscape:connector-curvature="0"/>
      <path id="path54" style="fill-rule:evenodd;fill:#92766b" d="m18.773 30.483c-0.183-0.028-0.414 0.015-0.679 0.121-0.321 0.105-0.465 0.226-0.438 0.359 0.371-0.16 0.719-0.133 1.039 0.082 0.321 0.211 0.481 0.52 0.481 0.918l0.078 0.039 0.359-0.32c-0.105-0.692-0.386-1.094-0.84-1.199z" inkscape:connector-curvature="0"/>
      <path id="path56" style="fill-rule:evenodd;fill:#92766b" d="m16.934 29.361c0.613 0 0.789 0.133 0.519 0.403l0.481-0.242c-0.266-0.426-0.598-0.547-1-0.36-0.024 0.055-0.024 0.121 0 0.199z" inkscape:connector-curvature="0"/>
      <path id="path58" style="fill-rule:evenodd;fill:#92766b" d="m13.656 28.522c-0.054-0.051-0.148-0.078-0.281-0.078-0.055-0.161 0.012-0.254 0.199-0.282 0.188-0.051 0.321-0.027 0.403 0.082l-0.321 0.278zm1.719 0.601c0.133-0.082 0.187-0.242 0.16-0.48-0.027-0.215-0.121-0.399-0.281-0.559-0.426-0.055-0.824-0.137-1.199-0.242-0.215-0.051-0.453-0.172-0.719-0.359l-0.242 0.121c-0.106 0.105-0.172 0.25-0.199 0.437 0.027 0.242 0.027 0.414 0 0.52 0.328 0.234 0.582 0.375 0.761 0.422-0.84-0.176-1.465-0.274-1.879-0.301l-0.242-0.039h-0.16c-0.082 0.215 0.199 0.465 0.84 0.758 0.719 0.296 1.094 0.468 1.121 0.523l2.398 0.84c-0.293-0.32-0.773-0.746-1.441-1.281-0.039-0.043-0.074-0.082-0.098-0.122-0.004 0.024-0.011 0.051-0.019 0.083l-0.403 0.32h-0.437c-0.082-0.27 0.051-0.442 0.398-0.52 0.18-0.031 0.309-0.023 0.379 0.02-0.07-0.129-0.093-0.242-0.058-0.34 0.027-0.137 0.105-0.254 0.238-0.363 0.137-0.078 0.254-0.106 0.363-0.078 0.133 0.05 0.199 0.144 0.199 0.281-0.054 0.238-0.082 0.371-0.082 0.398 0.293 0.028 0.497 0.016 0.602-0.039z" inkscape:connector-curvature="0"/>
      <path id="path60" style="fill-rule:evenodd;fill:#92766b" d="m16.535 29.322c0.051-0.425-0.16-0.558-0.64-0.398-0.508 0.187-0.52 0.387-0.04 0.598l0.68-0.2z" inkscape:connector-curvature="0"/>
      <path id="path62" style="fill-rule:evenodd;fill:#796359" d="m17.297 32.483-1.801 0.039c-0.242-0.051-0.586-0.321-1.039-0.797-0.375-0.43-0.773-0.563-1.203-0.403-0.184 0.082-0.305 0.133-0.359 0.161-0.106 0.027-0.227 0.015-0.36-0.039l-0.441-0.2c-0.293-0.133-0.692-0.562-1.199-1.281l-0.762-1c-0.051 0.266 0.015 0.574 0.203 0.918 0.238 0.402 0.414 0.695 0.519 0.883 0.266 0.426 0.625 0.707 1.079 0.84 0.64 0.16 1.187 0.359 1.64 0.597l1.403 0.723c0.105 0.051 0.359 0.238 0.757 0.559 0.375 0.265 0.653 0.425 0.84 0.48 0.321 0.027 0.668-0.148 1.039-0.519l0.364-0.36c-0.161-0.242-0.254-0.375-0.282-0.402-0.082-0.106-0.215-0.172-0.398-0.199z" inkscape:connector-curvature="0"/>
      <path id="path64" style="fill-rule:evenodd;fill:#796359" d="m14.176 29.444c0.051-0.188-0.094-0.254-0.442-0.2-0.347 0.078-0.48 0.25-0.398 0.52h0.437l0.403-0.32z" inkscape:connector-curvature="0"/>
      <path id="path66" style="fill-rule:evenodd;fill:#796359" d="m13.375 28.444c0.133 0 0.227 0.027 0.281 0.078l0.321-0.278c-0.082-0.109-0.215-0.136-0.403-0.082-0.187 0.028-0.254 0.121-0.199 0.282z" inkscape:connector-curvature="0"/>
      <path id="path68" style="fill-rule:evenodd;fill:#796359" d="m19.336 30.322 0.238 0.239c0.028-0.16 0-0.317-0.078-0.477-0.082-0.187-0.187-0.297-0.32-0.32-0.055-0.028-0.149-0.043-0.281-0.043-0.188 0.027-0.293 0.066-0.321 0.121-0.105 0.16-0.039 0.281 0.199 0.359 0.137 0.055 0.321 0.094 0.563 0.121z" inkscape:connector-curvature="0"/>
      <path id="path70" style="fill-rule:evenodd;fill:#000000;fill-opacity:.2" d="m17.816 23.924c0-0.109 0.094-0.613 0.278-1.523 0.054-0.399 0.066-1.04 0.039-1.918 0-0.348-0.039-0.907-0.117-1.68-0.082-0.719-0.106-1.281-0.082-1.68v-1.039c0.054-0.375 0.214-0.668 0.48-0.883 1.387-1.144 2.16-2.519 2.32-4.117 0.028-0.215 0.016-0.574-0.039-1.082 0-0.453 0.094-0.773 0.282-0.961 0.476-0.426 1.089-0.691 1.839-0.797 0.317-0.027 1.012-0.043 2.079-0.043l2.16 0.043c0.078-0.883 0.105-1.414 0.078-1.601-0.106-0.828-0.492-1.68-1.156-2.559-0.375-0.43-0.602-0.683-0.684-0.762-0.238-0.214-0.52-0.347-0.84-0.398h-4.797c-1.176 0-2.203-0.215-3.082-0.641l-1.879-1.082h-0.961c-0.132 0.453 0.36 1.028 1.481 1.723 0.027 0.023 0.613 0.277 1.762 0.758 0.507 0.187 1.144 0.492 1.918 0.922 0.585 0.183 1 0.359 1.242 0.519 0.133 0.106 0.25 0.278 0.359 0.52 0.133 0.293 0.133 0.508 0 0.64-0.16 0.161-0.629 0.145-1.402-0.039-0.774-0.215-1.211-0.32-1.317-0.32-0.562-0.082-1.949-0.121-4.16-0.121-1.23 0-2.055 0.039-2.48 0.121 0.183-0.027 0.465-0.016 0.84 0.039 0.398 0.078 0.679 0.121 0.839 0.121 0.372 0.024 0.985 0.067 1.84 0.117 0.961 0.243 1.934 0.575 2.918 1 0.242 0.082 0.656 0.149 1.242 0.2 0.079 0.562-0.066 1.027-0.441 1.402-0.215 0.215-0.641 0.48-1.281 0.801-0.532 0.293-1.211 0.359-2.039 0.199-1.278-0.266-1.973-0.402-2.078-0.402-0.426-0.024-0.895 0.109-1.403 0.402-0.453 0.266-0.797 0.586-1.039 0.961-0.187 0.293-0.305 0.664-0.359 1.117-0.055 0.535-0.106 0.934-0.16 1.203-0.133 0.692-0.215 1.36-0.239 2 0.078-0.75 0.293-1.43 0.637-2.043 0.402-0.664 0.895-1.105 1.481-1.32 1.253-0.399 2.226-0.094 2.921 0.922 0.133 0.187 0.2 0.668 0.2 1.441-0.028 0.613 0.144 1 0.519 1.16 0.188 0.051 0.414 0.078 0.68 0.078v-0.039c0-0.8-0.027-1.265-0.078-1.402-0.27-0.797-0.907-1.598-1.922-2.398-0.238-0.188-0.559-0.282-0.961-0.282-0.453 0-0.797 0.028-1.039 0.082-0.664 0.133-1.133 0.305-1.399 0.52-0.214 0.215-0.414 0.664-0.601 1.359-0.055-0.64 0.519-1.492 1.719-2.558 0.32-0.243 0.789-0.414 1.402-0.52 0.508-0.082 1-0.082 1.48 0 0.133 0.024 0.332 0.117 0.598 0.277 0.27 0.161 0.469 0.254 0.602 0.282 0.453 0.133 0.894 0.133 1.32 0 0.852-0.242 1.441-0.481 1.758-0.719 0.215-0.16 0.48-0.387 0.801-0.68 0 0.266-0.278 0.68-0.84 1.239l-1.278 1.359c-0.429 0.426-0.683 0.695-0.761 0.801 0.371 0.64 0.613 1.133 0.718 1.48 0.243 0.774 0.243 1.735 0 2.879-0.371 1.281-0.625 2.242-0.757 2.879l0.839 4.043z" inkscape:connector-curvature="0"/>
      <path id="path72" style="fill-rule:evenodd;fill:#000000;fill-opacity:.2" d="m16.613 16.963-0.16-1.641h-0.238c0.078 1.68 0.121 2.946 0.121 3.801l0.398 1.68c-0.027-0.402 0-0.856 0.082-1.359l-0.043-0.68-0.039-0.242c-0.238-0.211-0.281-0.731-0.121-1.559z" inkscape:connector-curvature="0"/>
      <path id="path74" style="fill-rule:evenodd;fill:#000000;fill-opacity:.2" d="m14.613 11.561c-0.48-0.239-0.785-0.399-0.918-0.477 0.801-0.48 1.465-0.64 2-0.48 0.215 0.05 0.371 0.183 0.481 0.398 0.105 0.293 0.183 0.52 0.238 0.68l0.602 0.961c0.078-0.106 0.332-0.375 0.757-0.801l1.282-1.359c0.558-0.559 0.84-0.973 0.84-1.239-0.321 0.293-0.586 0.52-0.801 0.68-0.321 0.238-0.906 0.477-1.758 0.719-0.426 0.133-0.867 0.133-1.32 0-0.133-0.028-0.336-0.121-0.602-0.282-0.266-0.16-0.465-0.25-0.598-0.277-0.48-0.082-0.976-0.082-1.48 0-0.613 0.106-1.082 0.277-1.402 0.52-1.2 1.066-1.774 1.918-1.719 2.558 0.187-0.691 0.387-1.144 0.601-1.359 0.266-0.215 0.731-0.387 1.399-0.52 0.238-0.054 0.586-0.082 1.039-0.082 0.402 0 0.723 0.094 0.961 0.282 1.012 0.8 1.652 1.601 1.918 2.398 0.055 0.137 0.082 0.602 0.082 1.402v0.039h0.238l-0.117-1.32c-0.348-0.933-0.629-1.535-0.84-1.801-0.187-0.238-0.48-0.453-0.883-0.64z" inkscape:connector-curvature="0"/>
      <path id="path76" style="fill-rule:evenodd;fill:#000000;fill-opacity:.2" d="m14.613 11.561c-0.48-0.239-0.785-0.399-0.918-0.477 0.801-0.48 1.465-0.64 2-0.48 0.215 0.05 0.371 0.183 0.481 0.398 0.105 0.293 0.183 0.52 0.238 0.68l0.602 0.961c0.078-0.106 0.332-0.375 0.757-0.801l1.282-1.359c0.558-0.559 0.84-0.973 0.84-1.239-0.321 0.293-0.586 0.52-0.801 0.68-0.321 0.238-0.906 0.477-1.758 0.719-0.426 0.133-0.867 0.133-1.32 0-0.133-0.028-0.336-0.121-0.602-0.282-0.266-0.16-0.465-0.25-0.598-0.277-0.48-0.082-0.976-0.082-1.48 0-0.613 0.106-1.082 0.277-1.402 0.52-1.2 1.066-1.774 1.918-1.719 2.558 0.187-0.691 0.387-1.144 0.601-1.359 0.266-0.215 0.731-0.387 1.399-0.52 0.238-0.054 0.586-0.082 1.039-0.082 0.402 0 0.723 0.094 0.961 0.282 1.012 0.8 1.652 1.601 1.918 2.398 0.055 0.137 0.082 0.602 0.082 1.402v0.039h0.238l-0.117-1.32c-0.348-0.933-0.629-1.535-0.84-1.801-0.187-0.238-0.48-0.453-0.883-0.64z" inkscape:connector-curvature="0"/>
      <path id="path78" style="fill-rule:evenodd;fill:#000000;fill-opacity:.2" d="m16.734 18.522 0.039 0.242-0.16-1.801c-0.16 0.828-0.117 1.348 0.121 1.559z" inkscape:connector-curvature="0"/>
      <path id="path80" style="fill-rule:evenodd;fill:#000000;fill-opacity:.2" d="m16.734 18.522 0.039 0.242-0.16-1.801c-0.16 0.828-0.117 1.348 0.121 1.559z" inkscape:connector-curvature="0"/>
      <path id="path82" style="fill-rule:evenodd;fill:#000000;fill-opacity:.2" d="m16.855 19.244 0.122 0.637c0.132-0.637 0.382-1.598 0.757-2.879 0.243-1.148 0.243-2.105 0-2.879-0.105-0.347-0.347-0.84-0.718-1.48-0.321 0.398-0.43 0.828-0.321 1.281 0.16 0.32 0.254 0.57 0.282 0.758 0.023 0.16 0.039 0.707 0.039 1.64v1.68c0 0.242-0.055 0.652-0.161 1.242z" inkscape:connector-curvature="0"/>
      <path id="path84" style="fill-rule:evenodd;fill:#000000;fill-opacity:.2" d="m16.855 19.244 0.122 0.637c0.132-0.637 0.382-1.598 0.757-2.879 0.243-1.148 0.243-2.105 0-2.879-0.105-0.347-0.347-0.84-0.718-1.48-0.321 0.398-0.43 0.828-0.321 1.281 0.16 0.32 0.254 0.57 0.282 0.758 0.023 0.16 0.039 0.707 0.039 1.64v1.68c0 0.242-0.055 0.652-0.161 1.242z" inkscape:connector-curvature="0"/>
      <path id="path86" style="fill-rule:evenodd;fill:#000000;fill-opacity:.2" d="m16.734 15.963c0-0.375-0.093-0.586-0.281-0.641l0.16 1.641 0.121-1z" inkscape:connector-curvature="0"/>
      <path id="path88" style="fill-rule:evenodd;fill:#000000;fill-opacity:.2" d="m16.734 15.963c0-0.375-0.093-0.586-0.281-0.641l0.16 1.641 0.121-1z" inkscape:connector-curvature="0"/>
      <path id="path90" style="fill-rule:evenodd;fill:#000000;fill-opacity:.2" d="m13.695 11.084c0.133 0.078 0.442 0.238 0.922 0.481 0.399 0.183 0.692 0.398 0.879 0.636 0.215 0.27 0.492 0.868 0.84 1.801l0.121 1.32c0.184 0.055 0.277 0.266 0.277 0.641l-0.117 1 0.238 2.281c0.106-0.586 0.161-1 0.161-1.242v-1.68c0-0.933-0.016-1.48-0.039-1.64-0.028-0.184-0.122-0.438-0.282-0.758-0.105-0.453 0-0.879 0.321-1.281l-0.602-0.961c-0.051-0.16-0.133-0.387-0.238-0.68-0.106-0.211-0.266-0.348-0.481-0.398-0.535-0.16-1.199 0-2 0.48z" inkscape:connector-curvature="0"/>
      <path id="path92" style="fill-rule:evenodd;fill:#000000;fill-opacity:.2" d="m13.695 11.084c0.133 0.078 0.442 0.238 0.922 0.481 0.399 0.183 0.692 0.398 0.879 0.636 0.215 0.27 0.492 0.868 0.84 1.801l0.121 1.32c0.184 0.055 0.277 0.266 0.277 0.641l-0.117 1 0.238 2.281c0.106-0.586 0.161-1 0.161-1.242v-1.68c0-0.933-0.016-1.48-0.039-1.64-0.028-0.184-0.122-0.438-0.282-0.758-0.105-0.453 0-0.879 0.321-1.281l-0.602-0.961c-0.051-0.16-0.133-0.387-0.238-0.68-0.106-0.211-0.266-0.348-0.481-0.398-0.535-0.16-1.199 0-2 0.48z" inkscape:connector-curvature="0"/>
      <path id="path94" style="fill-rule:evenodd;fill:#000000;fill-opacity:.2" d="m13.695 11.084c0.133 0.078 0.442 0.238 0.922 0.481 0.399 0.183 0.692 0.398 0.879 0.636 0.215 0.27 0.492 0.868 0.84 1.801l0.121 1.32c0.184 0.055 0.277 0.266 0.277 0.641l-0.117 1 0.238 2.281c0.106-0.586 0.161-1 0.161-1.242v-1.68c0-0.933-0.016-1.48-0.039-1.64-0.028-0.184-0.122-0.438-0.282-0.758-0.105-0.453 0-0.879 0.321-1.281l-0.602-0.961c-0.051-0.16-0.133-0.387-0.238-0.68-0.106-0.211-0.266-0.348-0.481-0.398-0.535-0.16-1.199 0-2 0.48z" inkscape:connector-curvature="0"/>
      <path id="path96" style="fill-rule:evenodd;fill:#ffffff;fill-opacity:.2" d="m12.055 17.084c0.16 0.559 0.332 0.973 0.519 1.238 0.133 0.188 0.375 0.348 0.719 0.481 0.402 0.16 0.684 0.293 0.84 0.398l1.48 1.321c0-0.614-0.238-1.227-0.718-1.84-0.293-0.348-0.747-0.84-1.36-1.481-0.242-0.293-0.453-0.636-0.64-1.039-0.106-0.238-0.266-0.625-0.481-1.16-0.32-0.906-0.492-1.574-0.519-2 0-0.105 0.015-0.266 0.039-0.48 0-0.184-0.024-0.332-0.079-0.438-0.32 1.867-0.253 3.531 0.2 5z" inkscape:connector-curvature="0"/>
      <g id="g98">
        <g id="g100" clip-path="url(#clipPath102)">
          <g id="g106" transform="matrix(.8 0 0 -.8 .01464 1.2832)">
            <g id="g128" mask="url(#mask120)">
              <path id="path136" style="fill-rule:evenodd;fill:url(#radialGradient130)" d="m15.055 19.444-0.321 0.437c0.106 0.242 0.375 0.402 0.801 0.48 0.399 0.083 0.735 0.067 1-0.039 0.266-0.132 0.414-0.375 0.442-0.718 0.023-0.321-0.016-0.629-0.122-0.922-0.32-0.774-0.839-1.028-1.562-0.758-0.691 0.238-0.77 0.746-0.238 1.52z" inkscape:connector-curvature="0"/>
            </g>
          </g>
        </g>
      </g>
      <g id="g138">
        <g id="g140" clip-path="url(#clipPath142)">
          <g id="g146" transform="matrix(.8 0 0 -.8 .01464 -9.5968)">
            <g id="g168" mask="url(#mask160)">
              <path id="path176" style="fill-rule:evenodd;fill:url(#radialGradient170)" d="m8.535 13.682 0.719 0.883c0.348 0 0.547-0.016 0.601-0.043 0.161-0.024 0.266-0.161 0.321-0.399l-0.16-1.039c-0.082-0.265-0.243-0.469-0.481-0.601-0.242-0.133-0.48-0.133-0.719 0-0.187 0.082-0.296 0.242-0.32 0.48 0.027 0.32 0.039 0.559 0.039 0.719z" inkscape:connector-curvature="0"/>
            </g>
          </g>
        </g>
      </g>
      <g id="g178">
        <g id="g180" clip-path="url(#clipPath182)">
          <g id="g186" transform="matrix(.8 0 0 -.8 .01464 -15.517)">
            <g id="g208" mask="url(#mask200)">
              <path id="path216" style="fill-rule:evenodd;fill:url(#radialGradient210)" d="m9.254 10.721 0.32-0.598c-0.133-0.613-0.519-0.855-1.16-0.722-0.078 0.32-0.055 0.617 0.082 0.882 0.16 0.321 0.414 0.465 0.758 0.438z" inkscape:connector-curvature="0"/>
            </g>
          </g>
        </g>
      </g>
      <g id="g218">
        <g id="g220" clip-path="url(#clipPath222)">
          <g id="g226" transform="matrix(.8 0 0 -.8 .01464 -16.797)">
            <g id="g248" mask="url(#mask240)">
              <path id="path256" style="fill-rule:evenodd;fill:url(#radialGradient250)" d="m20.535 12.041 1.039-0.16c0.188-0.586 0.215-1.254 0.082-2-0.16-0.934-0.59-1.211-1.281-0.84-0.453 0.215-0.668 0.75-0.641 1.602 0.055 0.828 0.321 1.293 0.801 1.398z" inkscape:connector-curvature="0"/>
            </g>
          </g>
        </g>
      </g>
      <g id="g258">
        <g id="g260" clip-path="url(#clipPath262)">
          <g id="g266" transform="matrix(.8 0 0 -.8 .01464 5.3632)">
            <g id="g288" mask="url(#mask280)">
              <path id="path296" style="fill-rule:evenodd;fill:url(#radialGradient290)" d="m9.254 22.283 0.879-0.32v-0.961c-0.024-0.348-0.156-0.625-0.399-0.84-0.375-0.371-0.679-0.414-0.918-0.117-0.242 0.211-0.296 0.598-0.16 1.156 0.133 0.563 0.332 0.922 0.598 1.082z" inkscape:connector-curvature="0"/>
            </g>
          </g>
        </g>
      </g>
      <g id="g298">
        <g id="g300" clip-path="url(#clipPath302)">
          <g id="g306" transform="matrix(.8 0 0 -.8 .01464 -.71679)">
            <g id="g328" mask="url(#mask320)">
              <path id="path336" style="fill-rule:evenodd;fill:url(#radialGradient330)" d="m3.496 18.123 0.598 0.278c0.054-0.637-0.078-1.09-0.399-1.36-0.265-0.211-0.734-0.293-1.398-0.238-0.027 0.266 0.09 0.558 0.359 0.879 0.293 0.32 0.571 0.469 0.84 0.441z" inkscape:connector-curvature="0"/>
            </g>
          </g>
        </g>
      </g>
      <g id="g338">
        <g id="g340" clip-path="url(#clipPath342)">
          <g id="g346" transform="matrix(.8 0 0 -.8 .01464 -11.837)">
            <g id="g368" mask="url(#mask360)">
              <path id="path376" style="fill-rule:evenodd;fill:url(#radialGradient370)" d="m3.055 12.041h0.441c0.024-0.211 0-0.426-0.082-0.64-0.133-0.211-0.293-0.293-0.48-0.239-0.051 0.16-0.012 0.453 0.121 0.879z" inkscape:connector-curvature="0"/>
            </g>
          </g>
        </g>
      </g>
      <g id="g378">
        <g id="g380" clip-path="url(#clipPath382)">
          <g id="g386" transform="matrix(.8 0 0 -.8 .01464 -25.278)">
            <g id="g408" mask="url(#mask400)">
              <path id="path416" style="fill-rule:evenodd;fill:url(#radialGradient410)" d="m4.977 6.123 1.156 0.438c0-0.266 0.015-0.746 0.043-1.438-0.055-0.535-0.321-0.722-0.801-0.562-0.348 0.109-0.574 0.336-0.68 0.683-0.082 0.317-0.066 0.653 0.039 1l0.243-0.121z" inkscape:connector-curvature="0"/>
            </g>
          </g>
        </g>
      </g>
      <g id="g418">
        <g id="g420" clip-path="url(#clipPath422)">
          <g id="g426" transform="matrix(.8 0 0 -.8 .01464 8.8032)">
            <g id="g448" mask="url(#mask440)">
              <path id="path456" style="fill-rule:evenodd;fill:url(#radialGradient450)" d="m18.297 24.201 0.16 0.442c0.691-0.16 1.039-0.907 1.039-2.242 0-0.317-0.027-0.504-0.082-0.559-0.051-0.078-0.226-0.133-0.519-0.16-0.801-0.078-1.2 0.199-1.2 0.84 0 0.535 0.2 1.093 0.602 1.679z" inkscape:connector-curvature="0"/>
            </g>
          </g>
        </g>
      </g>
      <g id="g458">
        <g id="g460" clip-path="url(#clipPath462)">
          <g id="g466" transform="matrix(.8 0 0 -.8 .01464 -.79679)">
            <g id="g488" mask="url(#mask480)">
              <path id="path496" style="fill-rule:evenodd;fill:url(#radialGradient490)" d="m21.254 18.123 0.601 0.598c0.106-0.293 0.172-0.664 0.2-1.117 0.027-0.586-0.094-0.868-0.36-0.84-0.242 0.051-0.386 0.238-0.441 0.558v0.801z" inkscape:connector-curvature="0"/>
            </g>
          </g>
        </g>
      </g>
      <g id="g498">
        <g id="g500" clip-path="url(#clipPath502)">
          <g id="g506" transform="matrix(.8 0 0 -.8 .01464 -6.3968)">
            <g id="g528" mask="url(#mask520)">
              <path id="path536" style="fill-rule:evenodd;fill:url(#radialGradient530)" d="m23.055 15.002v1.039c0.933-0.32 1.32-0.824 1.16-1.519-0.055-0.293-0.094-0.453-0.121-0.481-0.051-0.078-0.184-0.105-0.399-0.078-0.242 0.027-0.429 0.16-0.562 0.398-0.106 0.188-0.133 0.403-0.078 0.641z" inkscape:connector-curvature="0"/>
            </g>
          </g>
        </g>
      </g>
      <path id="path538" style="fill-rule:evenodd;fill:#000000;fill-opacity:.2" d="m3.613 8.682c0.16-0.051 0.387-0.078 0.68-0.078 0.16 0 0.387 0.011 0.684 0.039h0.039l0.078-0.282c-0.184-0.343-0.348-0.558-0.481-0.636-0.293-0.16-0.57-0.176-0.84-0.043-0.183 0.242-0.359 0.402-0.519 0.48-0.16-0.293-0.305-0.48-0.438-0.558-0.054-0.028-0.175-0.039-0.363-0.039-0.133 0-0.226-0.043-0.277-0.121-0.11-0.106-0.188-0.293-0.242-0.559l-0.321-0.242-0.16 0.078c-0.344 0.242-0.73 0.773-1.16 1.601-0.238 0.454-0.332 0.868-0.277 1.239 0.027 0.215 0.144 0.523 0.359 0.922 0.293-0.215 0.48-0.375 0.559-0.481 0.082-0.078 0.175-0.215 0.281-0.398 0.133-0.16 0.254-0.254 0.359-0.282 0.133-0.054 0.309-0.066 0.52-0.039 0.105 0 0.265 0.012 0.48 0.039 0.321-0.054 0.668-0.265 1.039-0.64z" inkscape:connector-curvature="0"/>
      <path id="path540" style="fill-rule:evenodd;fill:#000000;fill-opacity:.2" d="m4.055 5.361c-0.133 0.028-0.239 0.055-0.321 0.083l-0.121 0.078c-0.051 0.293 0.067 0.507 0.364 0.64 0.398 0.082 0.664 0.172 0.796 0.282 0.055 0.05 0.227 0.265 0.52 0.64l0.16 0.399 0.043-0.122-0.082-0.32h-0.078c0.211-0.133 0.32-0.305 0.32-0.519 0.852-0.161 1.504-0.254 1.957-0.278 0.43-0.027 1.094-0.027 2 0-0.133-0.16-0.414-0.269-0.84-0.32-0.453-0.137-0.878-0.215-1.277-0.242-0.801 0.105-1.402 0.133-1.801 0.082-0.027-0.188 0.067-0.387 0.282-0.602 0.211-0.187 0.41-0.304 0.597-0.359 0.426-0.16 0.973-0.293 1.641-0.402 0.558-0.079 0.867-0.133 0.918-0.157 0.187-0.109 0.414-0.336 0.683-0.683 0.532-0.344 1.438-0.465 2.719-0.36 0.719 0.028 1.16 0.055 1.32 0.082 0.454 0.051 0.852 0.2 1.2 0.438 0.695 0.508 1.226 0.855 1.601 1.043 0.16 0.078 0.438 0.238 0.84 0.48 0.344 0.239 0.637 0.399 0.879 0.477 0.773 0.242 1.586 0.656 2.441 1.242-0.054 0-0.347-0.066-0.882-0.199-1.145-0.399-1.911-0.653-2.301-0.762 0.203 0.063 0.426 0.168 0.66 0.32 0.348 0.188 0.602 0.321 0.762 0.399 0.293 0.109 0.535 0.269 0.718 0.48 0.403 0.188 0.707 0.336 0.922 0.442l0.078 0.039c0.27 0.082 0.52 0.105 0.762 0.082 0.293-0.028 0.574-0.403 0.84-1.121l-0.121-0.282c-0.078-0.16-0.211-0.453-0.399-0.878-0.082-0.106-0.199-0.161-0.359-0.161-0.723 0-1.269-0.054-1.641-0.16l-1.281-0.359c-0.187-0.082-0.414-0.215-0.679-0.402-0.321-0.239-0.547-0.383-0.68-0.438l-3.238-1.32c-0.563-0.293-1-0.508-1.321-0.641-0.59-0.238-1.082-0.348-1.48-0.32-0.215 0.027-0.68 0.254-1.403 0.679-0.078 0.083-0.199 0.149-0.359 0.2-0.078 0.054-0.226 0.187-0.437 0.402l-0.563 0.398c-0.293 0.215-0.734 0.336-1.32 0.36l-1.399 0.121c-0.293 0.082-0.519 0.215-0.679 0.402-0.188 0.266-0.348 0.492-0.481 0.68-0.265 0.266-0.426 0.41-0.48 0.437z" inkscape:connector-curvature="0"/>
      <path id="path542" style="fill-rule:evenodd;fill:#000000;fill-opacity:.2" d="m19.855 31.444 0.04 0.039 0.199-0.239c0-1.629-0.399-2.789-1.199-3.48-1.012-0.883-2.106-1.453-3.282-1.723 1.52 0.055 2.547-0.238 3.082-0.879 0.399-0.535 0.653-1.293 0.758-2.281 0.082-0.719 0.231-1.172 0.442-1.359 0.16-0.133 0.441-0.293 0.839-0.481 0.454-0.265 0.719-0.558 0.801-0.879 0.238-1.066 0.281-1.773 0.121-2.121l-0.281-0.277c-0.133-0.188-0.227-0.43-0.281-0.723-0.051-0.797-0.067-1.387-0.039-1.758-0.16-0.027-0.36 0.051-0.602 0.239-0.238 0.187-0.41 0.32-0.519 0.402-0.532 0.344-0.879 0.625-1.039 0.84l-0.2 0.558c-0.215 0.481-0.386 1.067-0.519 1.762-0.133-0.187-0.16-0.617-0.082-1.281 0-0.402 0.082-0.801 0.242-1.199 0.133-0.321 0.277-0.586 0.437-0.801 0.11-0.16 0.227-0.414 0.36-0.762 0.375-0.531 0.75-0.945 1.121-1.238 0.187-0.133 0.43-0.199 0.723-0.199 0.371-0.028 0.613-0.055 0.718-0.082 0.215-0.078 0.426-0.305 0.641-0.68 0.105-0.215 0.238-0.492 0.398-0.84 0.082-0.16 0.254-0.465 0.52-0.918 0.187-0.402 0.187-0.723 0-0.961-0.133-0.16-0.305-0.226-0.52-0.199-0.32 0.023-0.535 0.023-0.64 0-0.106-0.055-0.254-0.254-0.438-0.602l-0.722-0.878-1.879-1.321-1.078-0.562c-0.829-0.344-1.254-0.559-1.282-0.637l0.321-0.043-0.282-0.039c-0.214-0.023-1.14-0.004-2.781 0.059 0.543-0.004 1.004 0.043 1.383 0.14 0.691 0.188 1.051 0.281 1.078 0.281l0.641 0.399c0.105 0.055 0.293 0.176 0.558 0.363 0.375 0.317 0.602 0.559 0.68 0.719 0.082 0.215 0.137 0.371 0.16 0.48 0.082 0.184 0.188 0.293 0.32 0.321 0.11 0.023 0.293 0.05 0.563 0.078 0.238 0 0.426 0.039 0.559 0.121l-0.161 0.039h0.243c-0.055 0.508-0.094 0.894-0.122 1.16-0.16 1.121-0.32 1.922-0.48 2.399-0.133 0.429-0.266 0.734-0.398 0.921l-0.684 0.762c-0.316 0.371-0.691 0.637-1.117 0.797-0.188 0.055-0.309 0.109-0.36 0.16-0.082 0.028-0.148 0.121-0.203 0.281-0.105 0.348-0.199 0.829-0.277 1.442-0.082 0.691-0.16 1.172-0.242 1.437-0.211 0.934 0.027 1.789 0.722 2.563l0.278 0.277c0.375 0.43 0.562 0.988 0.562 1.68v0.601l-0.16 0.161c-0.055 0.078-0.254 0.293-0.601 0.64l-1 0.84c-0.188 0.188-0.399 0.281-0.641 0.281-0.481-0.16-0.84-0.226-1.078-0.203 0 0.082 0.199 0.32 0.597 0.723l0.243 0.238c0.293 0.106 0.718 0.309 1.277 0.602l1.523 0.679c0.586 0.266 1.118 0.84 1.598 1.719 0.293 0.535 0.441 1.348 0.441 2.442z" inkscape:connector-curvature="0"/>
      <path id="path544" style="fill-rule:evenodd;fill:#000000;fill-opacity:.2" d="m4.375 20.123c0.266 0.238 0.508 0.371 0.719 0.399-0.532-0.934-1.278-1.575-2.239-1.918-0.402-0.11-0.652-0.215-0.761-0.321-0.078-0.054-0.227-0.265-0.438-0.64-0.082-0.16-0.215-0.399-0.402-0.719-0.051-0.215-0.051-0.695 0-1.441 0-0.508 0.039-1 0.121-1.481 0.027-0.215 0.215-0.68 0.559-1.398l0.441-1.243c0.16-0.503 0.293-0.785 0.398-0.839 0.082-0.078 0.215-0.121 0.403-0.121 0.078 0 0.211 0.015 0.398 0.043h0.801c0.133-0.083 0.254-0.282 0.359-0.602-0.078-0.051-0.254-0.078-0.519-0.078-0.481 0.051-1.039 0.277-1.68 0.68-0.668 0.32-1.094 0.679-1.281 1.078-0.133 0.375-0.254 0.812-0.359 1.32-0.133 1.066-0.2 1.707-0.2 1.922 0.028 0.664 0.227 1.637 0.598 2.918l0.883 1.719 0.84 0.043c0.265 0.027 0.492 0.093 0.679 0.199 0.078 0.027 0.305 0.187 0.68 0.48z" inkscape:connector-curvature="0"/>
      <path id="path546" style="fill-rule:evenodd;fill:#000000;fill-opacity:.2" d="m20.094 31.244 0.203-0.16-0.043-0.363-0.52-2.117c-0.214-0.481-0.679-0.961-1.398-1.442-0.242-0.133-0.375-0.226-0.402-0.281 0-0.133 0.254-0.348 0.761-0.637 0.16-0.136 0.348-0.363 0.559-0.683 0.187-0.184 0.547-0.41 1.082-0.68 0.453-0.348 0.785-0.707 1-1.078 0.023-0.055 0.078-0.375 0.16-0.961l0.16-0.52c0.078-0.558 0.133-0.867 0.16-0.921 0.024-0.079 0.293-0.317 0.797-0.719l0.762-0.719c0.027-0.055 0.078-0.094 0.16-0.121 0.106-0.16 0.172-0.398 0.199-0.719 0.028-0.16 0.039-0.402 0.039-0.722 0.137-1.067 0.375-1.852 0.723-2.36 0.184-0.293 0.344-0.465 0.481-0.519 0.105-0.078 0.293-0.172 0.558-0.278 0.188-0.136 0.238-0.297 0.16-0.48-0.429-0.055-0.746 0.012-0.961 0.199-0.293 0.238-0.625 0.625-1 1.16-0.375 0.559-0.601 0.879-0.679 0.961-0.215 0.371-0.371 0.637-0.481 0.797-0.398 0.586-0.597 0.895-0.597 0.922 0.023-0.266 0.132-0.641 0.316-1.121 0.16-0.481 0.254-0.84 0.281-1.078 0.028-0.293 0.11-0.641 0.242-1.043l0.36-0.84c0.078-0.106 0.359-0.293 0.84-0.559 0.48-0.347 0.757-0.613 0.839-0.801 0.239-0.425 0.438-1.093 0.598-2 0.027-0.265 0.137-0.707 0.32-1.32 0.161-0.531 0.254-0.957 0.282-1.277 0-0.828-0.227-1.293-0.68-1.403-0.293-0.078-0.508-0.093-0.641-0.039-0.105-0.238-0.187-0.668-0.238-1.281 0-0.105-0.016-0.305-0.043-0.597-0.023-0.243-0.066-0.415-0.117-0.52-0.16-0.242-0.469-0.32-0.922-0.242-0.133 0.027-0.215 0.094-0.238 0.199 0 0.027 0.012 0.16 0.039 0.402 0.078 0.504 0.121 1.039 0.121 1.598-0.027 0.375-0.109 0.746-0.242 1.121-0.184 0.375-0.278 0.652-0.278 0.84l-0.523-0.199-0.16-0.039c-0.399-0.293-0.664-0.481-0.797-0.563l-0.723-0.398 0.16 0.039-0.078-0.039c-0.215-0.106-0.519-0.254-0.922-0.442-0.183-0.211-0.425-0.371-0.718-0.48-0.16-0.078-0.414-0.211-0.762-0.399-0.293-0.187-0.559-0.304-0.797-0.359l-0.48-0.082-0.321 0.043c0.028 0.078 0.453 0.293 1.282 0.637l1.078 0.562 1.879 1.321 0.722 0.878c0.184 0.348 0.332 0.547 0.438 0.602 0.105 0.023 0.32 0.023 0.64 0 0.215-0.027 0.387 0.039 0.52 0.199 0.187 0.238 0.187 0.559 0 0.961-0.266 0.449-0.438 0.758-0.52 0.918-0.16 0.348-0.293 0.625-0.398 0.84-0.215 0.375-0.426 0.602-0.641 0.68-0.109 0.027-0.347 0.054-0.718 0.082-0.293 0-0.536 0.066-0.723 0.199-0.371 0.293-0.746 0.707-1.121 1.238-0.133 0.348-0.25 0.602-0.36 0.762-0.16 0.215-0.304 0.48-0.437 0.801-0.16 0.398-0.242 0.797-0.242 1.199-0.078 0.664-0.051 1.094 0.082 1.281 0.133-0.695 0.304-1.281 0.519-1.762l0.2-0.558c0.16-0.215 0.507-0.496 1.039-0.84 0.109-0.082 0.281-0.215 0.519-0.402 0.242-0.188 0.442-0.266 0.602-0.239-0.028 0.371-0.012 0.961 0.039 1.758 0.054 0.293 0.148 0.535 0.281 0.723l0.281 0.277c0.16 0.348 0.117 1.055-0.121 2.121-0.082 0.321-0.347 0.614-0.801 0.879-0.398 0.188-0.679 0.348-0.839 0.481-0.215 0.187-0.36 0.64-0.442 1.359-0.105 0.988-0.359 1.746-0.758 2.281-0.535 0.641-1.562 0.934-3.082 0.879 1.176 0.27 2.27 0.84 3.282 1.723 0.8 0.691 1.199 1.851 1.199 3.48z" inkscape:connector-curvature="0"/>
      <path id="path548" style="fill-rule:evenodd;fill:#000000;fill-opacity:.2" d="m20.094 31.244 0.203-0.16-0.043-0.363-0.52-2.117c-0.214-0.481-0.679-0.961-1.398-1.442-0.242-0.133-0.375-0.226-0.402-0.281 0-0.133 0.254-0.348 0.761-0.637 0.16-0.136 0.348-0.363 0.559-0.683 0.187-0.184 0.547-0.41 1.082-0.68 0.453-0.348 0.785-0.707 1-1.078 0.023-0.055 0.078-0.375 0.16-0.961l0.16-0.52c0.078-0.558 0.133-0.867 0.16-0.921 0.024-0.079 0.293-0.317 0.797-0.719l0.762-0.719c0.027-0.055 0.078-0.094 0.16-0.121 0.106-0.16 0.172-0.398 0.199-0.719 0.028-0.16 0.039-0.402 0.039-0.722 0.137-1.067 0.375-1.852 0.723-2.36 0.184-0.293 0.344-0.465 0.481-0.519 0.105-0.078 0.293-0.172 0.558-0.278 0.188-0.136 0.238-0.297 0.16-0.48-0.429-0.055-0.746 0.012-0.961 0.199-0.293 0.238-0.625 0.625-1 1.16-0.375 0.559-0.601 0.879-0.679 0.961-0.215 0.371-0.371 0.637-0.481 0.797-0.398 0.586-0.597 0.895-0.597 0.922 0.023-0.266 0.132-0.641 0.316-1.121 0.16-0.481 0.254-0.84 0.281-1.078 0.028-0.293 0.11-0.641 0.242-1.043l0.36-0.84c0.078-0.106 0.359-0.293 0.84-0.559 0.48-0.347 0.757-0.613 0.839-0.801 0.239-0.425 0.438-1.093 0.598-2 0.027-0.265 0.137-0.707 0.32-1.32 0.161-0.531 0.254-0.957 0.282-1.277 0-0.828-0.227-1.293-0.68-1.403-0.293-0.078-0.508-0.093-0.641-0.039-0.105-0.238-0.187-0.668-0.238-1.281 0-0.105-0.016-0.305-0.043-0.597-0.023-0.243-0.066-0.415-0.117-0.52-0.16-0.242-0.469-0.32-0.922-0.242-0.133 0.027-0.215 0.094-0.238 0.199 0 0.027 0.012 0.16 0.039 0.402 0.078 0.504 0.121 1.039 0.121 1.598-0.027 0.375-0.109 0.746-0.242 1.121-0.184 0.375-0.278 0.652-0.278 0.84l-0.523-0.199-0.16-0.039c-0.399-0.293-0.664-0.481-0.797-0.563l-0.723-0.398 0.16 0.039-0.078-0.039c-0.215-0.106-0.519-0.254-0.922-0.442-0.183-0.211-0.425-0.371-0.718-0.48-0.16-0.078-0.414-0.211-0.762-0.399-0.293-0.187-0.559-0.304-0.797-0.359l-0.48-0.082-0.321 0.043c0.028 0.078 0.453 0.293 1.282 0.637l1.078 0.562 1.879 1.321 0.722 0.878c0.184 0.348 0.332 0.547 0.438 0.602 0.105 0.023 0.32 0.023 0.64 0 0.215-0.027 0.387 0.039 0.52 0.199 0.187 0.238 0.187 0.559 0 0.961-0.266 0.449-0.438 0.758-0.52 0.918-0.16 0.348-0.293 0.625-0.398 0.84-0.215 0.375-0.426 0.602-0.641 0.68-0.109 0.027-0.347 0.054-0.718 0.082-0.293 0-0.536 0.066-0.723 0.199-0.371 0.293-0.746 0.707-1.121 1.238-0.133 0.348-0.25 0.602-0.36 0.762-0.16 0.215-0.304 0.48-0.437 0.801-0.16 0.398-0.242 0.797-0.242 1.199-0.078 0.664-0.051 1.094 0.082 1.281 0.133-0.695 0.304-1.281 0.519-1.762l0.2-0.558c0.16-0.215 0.507-0.496 1.039-0.84 0.109-0.082 0.281-0.215 0.519-0.402 0.242-0.188 0.442-0.266 0.602-0.239-0.028 0.371-0.012 0.961 0.039 1.758 0.054 0.293 0.148 0.535 0.281 0.723l0.281 0.277c0.16 0.348 0.117 1.055-0.121 2.121-0.082 0.321-0.347 0.614-0.801 0.879-0.398 0.188-0.679 0.348-0.839 0.481-0.215 0.187-0.36 0.64-0.442 1.359-0.105 0.988-0.359 1.746-0.758 2.281-0.535 0.641-1.562 0.934-3.082 0.879 1.176 0.27 2.27 0.84 3.282 1.723 0.8 0.691 1.199 1.851 1.199 3.48z" inkscape:connector-curvature="0"/>
      <path id="path550" style="fill-rule:evenodd;fill:#000000;fill-opacity:.2" d="m3.613 5.444v0.078l0.121-0.078c0.082-0.028 0.188-0.055 0.321-0.083 0.054-0.027 0.215-0.171 0.48-0.437 0.133-0.188 0.293-0.414 0.481-0.68 0.16-0.187 0.386-0.32 0.679-0.402l1.399-0.121c0.586-0.024 1.027-0.145 1.32-0.36l0.563-0.398c0.211-0.215 0.359-0.348 0.437-0.402 0.16-0.051 0.281-0.117 0.359-0.2 0.723-0.425 1.188-0.652 1.403-0.679 0.398-0.028 0.89 0.082 1.48 0.32 0.321 0.133 0.758 0.348 1.321 0.641l3.238 1.32c0.133 0.055 0.359 0.199 0.68 0.438 0.265 0.187 0.492 0.32 0.679 0.402l1.281 0.359c0.372 0.106 0.918 0.16 1.641 0.16 0.16 0 0.277 0.055 0.359 0.161 0.188 0.425 0.321 0.718 0.399 0.878l0.121 0.282 0.121-0.321c0.078-0.187 0.078-0.414 0-0.679-0.109-0.746-0.242-1.16-0.402-1.242-0.051-0.024-0.227-0.04-0.52-0.04l-1.918-0.078c-0.562 0-0.922-0.027-1.082-0.082-0.371-0.078-0.785-0.32-1.238-0.718-0.613-0.508-1-0.813-1.16-0.922-0.535-0.266-1.336-0.625-2.403-1.078-0.238-0.161-0.585-0.239-1.039-0.239-0.48 0.024-0.824 0.039-1.039 0.039l-1.359 0.2c-0.242 0.05-0.586 0.199-1.043 0.441-0.453 0.238-0.813 0.398-1.078 0.477-0.238 0.054-0.586 0.082-1.039 0.082-0.508 0-0.867 0.011-1.082 0.039-0.481 0.082-0.813 0.199-1 0.359-0.532 1.066-0.985 1.867-1.36 2.402l-0.121 0.161z" inkscape:connector-curvature="0"/>
      <path id="path552" style="fill-rule:evenodd;fill:#000000;fill-opacity:.2" d="m3.613 5.444v0.078l0.121-0.078c0.082-0.028 0.188-0.055 0.321-0.083 0.054-0.027 0.215-0.171 0.48-0.437 0.133-0.188 0.293-0.414 0.481-0.68 0.16-0.187 0.386-0.32 0.679-0.402l1.399-0.121c0.586-0.024 1.027-0.145 1.32-0.36l0.563-0.398c0.211-0.215 0.359-0.348 0.437-0.402 0.16-0.051 0.281-0.117 0.359-0.2 0.723-0.425 1.188-0.652 1.403-0.679 0.398-0.028 0.89 0.082 1.48 0.32 0.321 0.133 0.758 0.348 1.321 0.641l3.238 1.32c0.133 0.055 0.359 0.199 0.68 0.438 0.265 0.187 0.492 0.32 0.679 0.402l1.281 0.359c0.372 0.106 0.918 0.16 1.641 0.16 0.16 0 0.277 0.055 0.359 0.161 0.188 0.425 0.321 0.718 0.399 0.878l0.121 0.282 0.121-0.321c0.078-0.187 0.078-0.414 0-0.679-0.109-0.746-0.242-1.16-0.402-1.242-0.051-0.024-0.227-0.04-0.52-0.04l-1.918-0.078c-0.562 0-0.922-0.027-1.082-0.082-0.371-0.078-0.785-0.32-1.238-0.718-0.613-0.508-1-0.813-1.16-0.922-0.535-0.266-1.336-0.625-2.403-1.078-0.238-0.161-0.585-0.239-1.039-0.239-0.48 0.024-0.824 0.039-1.039 0.039l-1.359 0.2c-0.242 0.05-0.586 0.199-1.043 0.441-0.453 0.238-0.813 0.398-1.078 0.477-0.238 0.054-0.586 0.082-1.039 0.082-0.508 0-0.867 0.011-1.082 0.039-0.481 0.082-0.813 0.199-1 0.359-0.532 1.066-0.985 1.867-1.36 2.402l-0.121 0.161z" inkscape:connector-curvature="0"/>
      <path id="path554" style="fill-rule:evenodd;fill:#000000;fill-opacity:.2" d="m5.016 8.643-0.161 0.48-0.121 0.719c0.133 0.027 0.215 0.16 0.243 0.402 0.425 1.465 0.757 2.559 1 3.278-0.137-2-0.227-3.121-0.282-3.36l-0.121-0.801-0.359-0.718h-0.199z" inkscape:connector-curvature="0"/>
      <path id="path556" style="fill-rule:evenodd;fill:#000000;fill-opacity:.2" d="m0.336 15.483c0 0.293 0.051 0.546 0.16 0.761 0.16 0.266 0.277 0.481 0.359 0.641l-0.519-1.484v0.082z" inkscape:connector-curvature="0"/>
      <path id="path558" style="fill-rule:evenodd;fill:#000000;fill-opacity:.2" d="m0.855 16.885 0.438 0.797c-0.371-1.278-0.57-2.254-0.598-2.918 0-0.215 0.067-0.852 0.2-1.922 0.105-0.504 0.226-0.945 0.359-1.32 0.187-0.399 0.613-0.758 1.281-1.078 0.641-0.399 1.199-0.625 1.68-0.68 0.265 0 0.441 0.027 0.519 0.078l0.121-0.719 0.161-0.48h-0.039c-0.293-0.028-0.524-0.039-0.684-0.039-0.293 0-0.52 0.027-0.68 0.078-0.371 0.375-0.718 0.586-1.039 0.64-0.215-0.027-0.371-0.039-0.48-0.039-0.211-0.027-0.387-0.015-0.52 0.039-0.105 0.028-0.226 0.122-0.359 0.282-0.106 0.183-0.199 0.32-0.281 0.398-0.079 0.106-0.266 0.266-0.559 0.481 0.187 0.293 0.293 0.492 0.32 0.601 0.16 0.399 0.16 1.078 0 2.039-0.242 1.254-0.359 2.012-0.359 2.278l0.519 1.484z" inkscape:connector-curvature="0"/>
      <path id="path560" style="fill-rule:evenodd;fill:#000000;fill-opacity:.2" d="m0.855 16.885 0.438 0.797c-0.371-1.278-0.57-2.254-0.598-2.918 0-0.215 0.067-0.852 0.2-1.922 0.105-0.504 0.226-0.945 0.359-1.32 0.187-0.399 0.613-0.758 1.281-1.078 0.641-0.399 1.199-0.625 1.68-0.68 0.265 0 0.441 0.027 0.519 0.078l0.121-0.719 0.161-0.48h-0.039c-0.293-0.028-0.524-0.039-0.684-0.039-0.293 0-0.52 0.027-0.68 0.078-0.371 0.375-0.718 0.586-1.039 0.64-0.215-0.027-0.371-0.039-0.48-0.039-0.211-0.027-0.387-0.015-0.52 0.039-0.105 0.028-0.226 0.122-0.359 0.282-0.106 0.183-0.199 0.32-0.281 0.398-0.079 0.106-0.266 0.266-0.559 0.481 0.187 0.293 0.293 0.492 0.32 0.601 0.16 0.399 0.16 1.078 0 2.039-0.242 1.254-0.359 2.012-0.359 2.278l0.519 1.484z" inkscape:connector-curvature="0"/>
      <path id="path562" style="fill-rule:evenodd;fill:#000000;fill-opacity:.2" d="m5.215 8.643 0.238 0.121c0.055 0.293 0.094 0.492 0.121 0.597l0.16 0.563-0.039-1c0.028-0.27-0.039-0.707-0.199-1.32l-0.043-0.121-0.199 0.359-0.16 0.519 0.039 0.122 0.082 0.16z" inkscape:connector-curvature="0"/>
      <path id="path564" style="fill-rule:evenodd;fill:#000000;fill-opacity:.2" d="m5.094 8.361 0.16-0.519 0.203-0.359-0.16-0.399c-0.297-0.375-0.469-0.59-0.52-0.64-0.136-0.11-0.402-0.2-0.8-0.282-0.293-0.133-0.415-0.347-0.36-0.64l-0.082 0.039-0.238 0.203c-0.027 0.183 0 0.347 0.078 0.48 0.32 0.184 0.535 0.332 0.641 0.438l0.48 0.601c-0.187 0.051-0.453 0.067-0.801 0.039-0.48-0.054-0.746-0.078-0.8-0.078-0.239 0-0.426-0.043-0.559-0.121l-0.402-0.242c0.054 0.27 0.136 0.453 0.242 0.563 0.054 0.078 0.148 0.117 0.281 0.117 0.184 0 0.305 0.015 0.359 0.043 0.133 0.078 0.278 0.265 0.438 0.558 0.16-0.078 0.336-0.238 0.523-0.48 0.266-0.133 0.547-0.121 0.84 0.039 0.133 0.082 0.293 0.297 0.477 0.64z" inkscape:connector-curvature="0"/>
      <path id="path566" style="fill-rule:evenodd;fill:#000000;fill-opacity:.2" d="m5.094 8.361 0.16-0.519 0.203-0.359-0.16-0.399c-0.297-0.375-0.469-0.59-0.52-0.64-0.136-0.11-0.402-0.2-0.8-0.282-0.293-0.133-0.415-0.347-0.36-0.64l-0.082 0.039-0.238 0.203c-0.027 0.183 0 0.347 0.078 0.48 0.32 0.184 0.535 0.332 0.641 0.438l0.48 0.601c-0.187 0.051-0.453 0.067-0.801 0.039-0.48-0.054-0.746-0.078-0.8-0.078-0.239 0-0.426-0.043-0.559-0.121l-0.402-0.242c0.054 0.27 0.136 0.453 0.242 0.563 0.054 0.078 0.148 0.117 0.281 0.117 0.184 0 0.305 0.015 0.359 0.043 0.133 0.078 0.278 0.265 0.438 0.558 0.16-0.078 0.336-0.238 0.523-0.48 0.266-0.133 0.547-0.121 0.84 0.039 0.133 0.082 0.293 0.297 0.477 0.64z" inkscape:connector-curvature="0"/>
      <path id="path568" style="fill-rule:evenodd;fill:#000000;fill-opacity:.2" d="m5.453 8.764-0.238-0.121 0.359 0.718c-0.027-0.105-0.066-0.304-0.121-0.597z" inkscape:connector-curvature="0"/>
      <path id="path570" style="fill-rule:evenodd;fill:#000000;fill-opacity:.2" d="m5.453 8.764-0.238-0.121 0.359 0.718c-0.027-0.105-0.066-0.304-0.121-0.597z" inkscape:connector-curvature="0"/>
      <path id="path572" style="fill-rule:evenodd;fill:#000000;fill-opacity:.2" d="m20.773 7.682 1.52 0.961c0.16-0.028 0.309-0.282 0.441-0.758 0-0.32-0.027-0.563-0.078-0.723l-0.281-0.519c-0.266 0.718-0.547 1.093-0.84 1.121-0.238 0.027-0.492 0-0.762-0.082z" inkscape:connector-curvature="0"/>
      <path id="path574" style="fill-rule:evenodd;fill:#000000;fill-opacity:.2" d="m20.773 7.682 1.52 0.961c0.16-0.028 0.309-0.282 0.441-0.758 0-0.32-0.027-0.563-0.078-0.723l-0.281-0.519c-0.266 0.718-0.547 1.093-0.84 1.121-0.238 0.027-0.492 0-0.762-0.082z" inkscape:connector-curvature="0"/>
      <path id="path576" style="fill-rule:evenodd;fill:#000000;fill-opacity:.2" d="m1.613 6.643 0.321 0.242-0.039-0.402-0.282 0.16z" inkscape:connector-curvature="0"/>
      <path id="path578" style="fill-rule:evenodd;fill:#000000;fill-opacity:.2" d="m1.613 6.643 0.321 0.242-0.039-0.402-0.282 0.16z" inkscape:connector-curvature="0"/>
      <path id="path580" style="fill-rule:evenodd;fill:#000000;fill-opacity:.2" d="m20.254 30.721 0.039 0.363 0.32-0.523c0.082-0.211 0.121-0.559 0.121-1.039 0.133-0.614 0.426-1.547 0.879-2.801 0.137-0.453 0.43-1.211 0.883-2.277 0.692-1.653 1.52-3 2.481-4.043 0.293-0.344 0.585-0.852 0.878-1.52 0.348-0.773 0.614-1.293 0.801-1.559 0.266-0.347 0.614-0.761 1.039-1.238 0.348-0.43 0.571-0.933 0.68-1.523 0.055-0.293 0.266-1 0.641-2.117 0.265-0.801 0-1.629-0.801-2.481-0.055-0.055-0.281-0.242-0.68-0.562-0.265-0.184-0.414-0.426-0.441-0.719-0.051-0.426-0.039-1.106 0.039-2.039-0.106-0.828-0.492-1.68-1.156-2.559-0.375-0.43-0.602-0.683-0.684-0.762-0.238-0.214-0.52-0.347-0.84-0.398h-4.797c-1.176 0-2.203-0.215-3.082-0.641l-1.32-0.761c-0.266-0.161-0.801-0.481-1.598-0.961-0.722-0.399-1.297-0.586-1.722-0.559-0.133 0-0.36 0.055-0.68 0.16-0.344 0.133-0.57 0.215-0.68 0.239l-1.679 0.441c-0.188 0.055-0.536 0.121-1.04 0.199-0.48 0.055-0.839 0.137-1.082 0.242-0.664 0.293-1.226 0.825-1.679 1.598 0.187-0.16 0.519-0.277 1-0.359 0.215-0.028 0.574-0.039 1.082-0.039 0.453 0 0.801-0.028 1.039-0.082 0.265-0.079 0.625-0.239 1.078-0.477 0.453-0.242 0.801-0.387 1.043-0.441l1.359-0.2c0.215 0 0.559-0.015 1.039-0.039 0.454 0 0.801 0.078 1.039 0.239 1.067 0.453 1.868 0.812 2.403 1.078 0.16 0.109 0.547 0.414 1.16 0.922 0.453 0.398 0.863 0.64 1.238 0.718 0.16 0.055 0.52 0.082 1.082 0.082l1.918 0.078c0.293 0 0.469 0.016 0.52 0.04 0.16 0.082 0.293 0.496 0.402 1.242 0.078 0.265 0.078 0.492 0 0.679l-0.121 0.321 0.281 0.519c0.051 0.16 0.078 0.399 0.078 0.719-0.132 0.48-0.281 0.734-0.441 0.762l0.523 0.199c0-0.188 0.094-0.465 0.278-0.84 0.133-0.375 0.215-0.746 0.242-1.121 0-0.559-0.043-1.094-0.121-1.598-0.027-0.242-0.039-0.375-0.039-0.402 0.027-0.105 0.105-0.172 0.238-0.199 0.453-0.078 0.762 0 0.922 0.242 0.051 0.105 0.094 0.277 0.117 0.52 0.027 0.292 0.043 0.492 0.043 0.597 0.051 0.613 0.133 1.043 0.238 1.281 0.133-0.054 0.348-0.039 0.641 0.039 0.453 0.11 0.68 0.575 0.68 1.403-0.028 0.32-0.121 0.746-0.282 1.277-0.183 0.613-0.293 1.055-0.32 1.32-0.16 0.907-0.359 1.575-0.598 2-0.082 0.188-0.359 0.454-0.839 0.801-0.481 0.266-0.762 0.453-0.84 0.559l-0.36 0.84c-0.136 0.402-0.214 0.75-0.242 1.043-0.027 0.238-0.121 0.597-0.281 1.078-0.184 0.48-0.293 0.851-0.316 1.121 0-0.027 0.199-0.336 0.597-0.922 0.11-0.16 0.266-0.426 0.481-0.797 0.078-0.082 0.304-0.402 0.679-0.961 0.375-0.535 0.707-0.922 1-1.16 0.215-0.187 0.536-0.254 0.961-0.199 0.078 0.183 0.028 0.347-0.16 0.48-0.265 0.106-0.453 0.2-0.558 0.278-0.137 0.054-0.293 0.226-0.481 0.519-0.348 0.508-0.586 1.293-0.723 2.36 0 0.32-0.011 0.562-0.039 0.722-0.027 0.321-0.093 0.559-0.199 0.719-0.082 0.027-0.133 0.066-0.16 0.121l-0.762 0.719c-0.504 0.402-0.773 0.64-0.797 0.719-0.027 0.054-0.082 0.363-0.16 0.921l-0.16 0.52c-0.082 0.586-0.137 0.906-0.16 0.961-0.215 0.371-0.547 0.734-1 1.078-0.535 0.27-0.895 0.496-1.082 0.68-0.211 0.32-0.399 0.55-0.559 0.683-0.507 0.293-0.761 0.504-0.761 0.637 0.027 0.055 0.16 0.148 0.402 0.281 0.719 0.481 1.184 0.961 1.398 1.442l0.52 2.117z" inkscape:connector-curvature="0"/>
      <path id="path582" style="fill-rule:evenodd;fill:#000000;fill-opacity:.2" d="m20.254 30.721 0.039 0.363 0.32-0.523c0.082-0.211 0.121-0.559 0.121-1.039 0.133-0.614 0.426-1.547 0.879-2.801 0.137-0.453 0.43-1.211 0.883-2.277 0.692-1.653 1.52-3 2.481-4.043 0.293-0.344 0.585-0.852 0.878-1.52 0.348-0.773 0.614-1.293 0.801-1.559 0.266-0.347 0.614-0.761 1.039-1.238 0.348-0.43 0.571-0.933 0.68-1.523 0.055-0.293 0.266-1 0.641-2.117 0.265-0.801 0-1.629-0.801-2.481-0.055-0.055-0.281-0.242-0.68-0.562-0.265-0.184-0.414-0.426-0.441-0.719-0.051-0.426-0.039-1.106 0.039-2.039-0.106-0.828-0.492-1.68-1.156-2.559-0.375-0.43-0.602-0.683-0.684-0.762-0.238-0.214-0.52-0.347-0.84-0.398h-4.797c-1.176 0-2.203-0.215-3.082-0.641l-1.32-0.761c-0.266-0.161-0.801-0.481-1.598-0.961-0.722-0.399-1.297-0.586-1.722-0.559-0.133 0-0.36 0.055-0.68 0.16-0.344 0.133-0.57 0.215-0.68 0.239l-1.679 0.441c-0.188 0.055-0.536 0.121-1.04 0.199-0.48 0.055-0.839 0.137-1.082 0.242-0.664 0.293-1.226 0.825-1.679 1.598 0.187-0.16 0.519-0.277 1-0.359 0.215-0.028 0.574-0.039 1.082-0.039 0.453 0 0.801-0.028 1.039-0.082 0.265-0.079 0.625-0.239 1.078-0.477 0.453-0.242 0.801-0.387 1.043-0.441l1.359-0.2c0.215 0 0.559-0.015 1.039-0.039 0.454 0 0.801 0.078 1.039 0.239 1.067 0.453 1.868 0.812 2.403 1.078 0.16 0.109 0.547 0.414 1.16 0.922 0.453 0.398 0.863 0.64 1.238 0.718 0.16 0.055 0.52 0.082 1.082 0.082l1.918 0.078c0.293 0 0.469 0.016 0.52 0.04 0.16 0.082 0.293 0.496 0.402 1.242 0.078 0.265 0.078 0.492 0 0.679l-0.121 0.321 0.281 0.519c0.051 0.16 0.078 0.399 0.078 0.719-0.132 0.48-0.281 0.734-0.441 0.762l0.523 0.199c0-0.188 0.094-0.465 0.278-0.84 0.133-0.375 0.215-0.746 0.242-1.121 0-0.559-0.043-1.094-0.121-1.598-0.027-0.242-0.039-0.375-0.039-0.402 0.027-0.105 0.105-0.172 0.238-0.199 0.453-0.078 0.762 0 0.922 0.242 0.051 0.105 0.094 0.277 0.117 0.52 0.027 0.292 0.043 0.492 0.043 0.597 0.051 0.613 0.133 1.043 0.238 1.281 0.133-0.054 0.348-0.039 0.641 0.039 0.453 0.11 0.68 0.575 0.68 1.403-0.028 0.32-0.121 0.746-0.282 1.277-0.183 0.613-0.293 1.055-0.32 1.32-0.16 0.907-0.359 1.575-0.598 2-0.082 0.188-0.359 0.454-0.839 0.801-0.481 0.266-0.762 0.453-0.84 0.559l-0.36 0.84c-0.136 0.402-0.214 0.75-0.242 1.043-0.027 0.238-0.121 0.597-0.281 1.078-0.184 0.48-0.293 0.851-0.316 1.121 0-0.027 0.199-0.336 0.597-0.922 0.11-0.16 0.266-0.426 0.481-0.797 0.078-0.082 0.304-0.402 0.679-0.961 0.375-0.535 0.707-0.922 1-1.16 0.215-0.187 0.536-0.254 0.961-0.199 0.078 0.183 0.028 0.347-0.16 0.48-0.265 0.106-0.453 0.2-0.558 0.278-0.137 0.054-0.293 0.226-0.481 0.519-0.348 0.508-0.586 1.293-0.723 2.36 0 0.32-0.011 0.562-0.039 0.722-0.027 0.321-0.093 0.559-0.199 0.719-0.082 0.027-0.133 0.066-0.16 0.121l-0.762 0.719c-0.504 0.402-0.773 0.64-0.797 0.719-0.027 0.054-0.082 0.363-0.16 0.921l-0.16 0.52c-0.082 0.586-0.137 0.906-0.16 0.961-0.215 0.371-0.547 0.734-1 1.078-0.535 0.27-0.895 0.496-1.082 0.68-0.211 0.32-0.399 0.55-0.559 0.683-0.507 0.293-0.761 0.504-0.761 0.637 0.027 0.055 0.16 0.148 0.402 0.281 0.719 0.481 1.184 0.961 1.398 1.442l0.52 2.117z" inkscape:connector-curvature="0"/>
      <path id="path584" style="fill-rule:evenodd;fill:#000000;fill-opacity:.2" d="m20.254 30.721 0.039 0.363 0.32-0.523c0.082-0.211 0.121-0.559 0.121-1.039 0.133-0.614 0.426-1.547 0.879-2.801 0.137-0.453 0.43-1.211 0.883-2.277 0.692-1.653 1.52-3 2.481-4.043 0.293-0.344 0.585-0.852 0.878-1.52 0.348-0.773 0.614-1.293 0.801-1.559 0.266-0.347 0.614-0.761 1.039-1.238 0.348-0.43 0.571-0.933 0.68-1.523 0.055-0.293 0.266-1 0.641-2.117 0.265-0.801 0-1.629-0.801-2.481-0.055-0.055-0.281-0.242-0.68-0.562-0.265-0.184-0.414-0.426-0.441-0.719-0.051-0.426-0.039-1.106 0.039-2.039-0.106-0.828-0.492-1.68-1.156-2.559-0.375-0.43-0.602-0.683-0.684-0.762-0.238-0.214-0.52-0.347-0.84-0.398h-4.797c-1.176 0-2.203-0.215-3.082-0.641l-1.32-0.761c-0.266-0.161-0.801-0.481-1.598-0.961-0.722-0.399-1.297-0.586-1.722-0.559-0.133 0-0.36 0.055-0.68 0.16-0.344 0.133-0.57 0.215-0.68 0.239l-1.679 0.441c-0.188 0.055-0.536 0.121-1.04 0.199-0.48 0.055-0.839 0.137-1.082 0.242-0.664 0.293-1.226 0.825-1.679 1.598 0.187-0.16 0.519-0.277 1-0.359 0.215-0.028 0.574-0.039 1.082-0.039 0.453 0 0.801-0.028 1.039-0.082 0.265-0.079 0.625-0.239 1.078-0.477 0.453-0.242 0.801-0.387 1.043-0.441l1.359-0.2c0.215 0 0.559-0.015 1.039-0.039 0.454 0 0.801 0.078 1.039 0.239 1.067 0.453 1.868 0.812 2.403 1.078 0.16 0.109 0.547 0.414 1.16 0.922 0.453 0.398 0.863 0.64 1.238 0.718 0.16 0.055 0.52 0.082 1.082 0.082l1.918 0.078c0.293 0 0.469 0.016 0.52 0.04 0.16 0.082 0.293 0.496 0.402 1.242 0.078 0.265 0.078 0.492 0 0.679l-0.121 0.321 0.281 0.519c0.051 0.16 0.078 0.399 0.078 0.719-0.132 0.48-0.281 0.734-0.441 0.762l0.523 0.199c0-0.188 0.094-0.465 0.278-0.84 0.133-0.375 0.215-0.746 0.242-1.121 0-0.559-0.043-1.094-0.121-1.598-0.027-0.242-0.039-0.375-0.039-0.402 0.027-0.105 0.105-0.172 0.238-0.199 0.453-0.078 0.762 0 0.922 0.242 0.051 0.105 0.094 0.277 0.117 0.52 0.027 0.292 0.043 0.492 0.043 0.597 0.051 0.613 0.133 1.043 0.238 1.281 0.133-0.054 0.348-0.039 0.641 0.039 0.453 0.11 0.68 0.575 0.68 1.403-0.028 0.32-0.121 0.746-0.282 1.277-0.183 0.613-0.293 1.055-0.32 1.32-0.16 0.907-0.359 1.575-0.598 2-0.082 0.188-0.359 0.454-0.839 0.801-0.481 0.266-0.762 0.453-0.84 0.559l-0.36 0.84c-0.136 0.402-0.214 0.75-0.242 1.043-0.027 0.238-0.121 0.597-0.281 1.078-0.184 0.48-0.293 0.851-0.316 1.121 0-0.027 0.199-0.336 0.597-0.922 0.11-0.16 0.266-0.426 0.481-0.797 0.078-0.082 0.304-0.402 0.679-0.961 0.375-0.535 0.707-0.922 1-1.16 0.215-0.187 0.536-0.254 0.961-0.199 0.078 0.183 0.028 0.347-0.16 0.48-0.265 0.106-0.453 0.2-0.558 0.278-0.137 0.054-0.293 0.226-0.481 0.519-0.348 0.508-0.586 1.293-0.723 2.36 0 0.32-0.011 0.562-0.039 0.722-0.027 0.321-0.093 0.559-0.199 0.719-0.082 0.027-0.133 0.066-0.16 0.121l-0.762 0.719c-0.504 0.402-0.773 0.64-0.797 0.719-0.027 0.054-0.082 0.363-0.16 0.921l-0.16 0.52c-0.082 0.586-0.137 0.906-0.16 0.961-0.215 0.371-0.547 0.734-1 1.078-0.535 0.27-0.895 0.496-1.082 0.68-0.211 0.32-0.399 0.55-0.559 0.683-0.507 0.293-0.761 0.504-0.761 0.637 0.027 0.055 0.16 0.148 0.402 0.281 0.719 0.481 1.184 0.961 1.398 1.442l0.52 2.117z" inkscape:connector-curvature="0"/>
      <path id="path586" style="fill-rule:evenodd;fill:#000000;fill-opacity:.2" d="m3.695 7.322c0.348 0.028 0.614 0.012 0.801-0.039l-0.48-0.601c-0.106-0.106-0.321-0.254-0.641-0.438-0.082-0.133-0.105-0.293-0.082-0.48-0.133 0.105-0.598 0.347-1.398 0.719l0.039 0.402 0.402 0.238c0.133 0.078 0.32 0.121 0.559 0.121 0.054 0 0.32 0.024 0.8 0.078z" inkscape:connector-curvature="0"/>
      <path id="path588" style="fill-rule:evenodd;fill:#000000;fill-opacity:.2" d="m3.695 7.322c0.348 0.028 0.614 0.012 0.801-0.039l-0.48-0.601c-0.106-0.106-0.321-0.254-0.641-0.438-0.082-0.133-0.105-0.293-0.082-0.48-0.133 0.105-0.598 0.347-1.398 0.719l0.039 0.402 0.402 0.238c0.133 0.078 0.32 0.121 0.559 0.121 0.054 0 0.32 0.024 0.8 0.078z" inkscape:connector-curvature="0"/>
      <path id="path590" style="fill-rule:evenodd;fill:#000000;fill-opacity:.2" d="m3.695 7.322c0.348 0.028 0.614 0.012 0.801-0.039l-0.48-0.601c-0.106-0.106-0.321-0.254-0.641-0.438-0.082-0.133-0.105-0.293-0.082-0.48-0.133 0.105-0.598 0.347-1.398 0.719l0.039 0.402 0.402 0.238c0.133 0.078 0.32 0.121 0.559 0.121 0.054 0 0.32 0.024 0.8 0.078z" inkscape:connector-curvature="0"/>
      <path id="path592" style="fill-rule:evenodd;fill:#ffffff;fill-opacity:.2" d="m11.137 31.322c1.172 0.696 1.918 1.145 2.238 1.36l0.441 0.16c-0.296-0.348-0.906-0.734-1.839-1.16-0.856-0.375-1.43-0.785-1.723-1.238-0.293-0.454-0.305-0.934-0.039-1.442 0.265-0.48 0.64-0.828 1.121-1.039l1.32-0.519c0.239-0.083 0.824-0.122 1.758-0.122 1.176-0.054 2.039 0.012 2.602 0.2 0.16 0.054 0.359 0.16 0.597 0.32 0.242 0.187 0.43 0.309 0.563 0.359-0.266-0.425-0.481-0.718-0.641-0.879l-0.519-0.398-0.403-0.16c-0.664-0.215-1.011-0.336-1.039-0.363-0.187-0.079-0.371-0.211-0.558-0.399l-0.36-0.121-0.883-0.039c-0.023-0.16-0.117-0.359-0.277-0.602-0.187-0.265-0.32-0.453-0.402-0.558-0.348-0.692-0.614-1.133-0.801-1.321-0.211-0.187-0.586-0.277-1.117-0.277-0.614 0.051-1.028 0.078-1.242 0.078-0.372 0-0.598-0.011-0.68-0.039-0.238-0.105-0.586-0.347-1.039-0.722-1.012-0.825-1.586-1.293-1.719-1.399-0.055-0.055-0.32-0.293-0.801-0.719-0.32-0.293-0.558-0.547-0.718-0.761 0.503 1.093 0.933 1.867 1.277 2.32 0.43 0.641 0.949 1.148 1.562 1.519 0.637 0.454 1.106 0.868 1.399 1.243 0.16 0.183 0.238 0.465 0.238 0.84 0 0.558-0.023 0.863-0.078 0.917-0.055 0.055-0.227 0.028-0.52-0.078-0.855-0.16-1.402-0.468-1.64-0.922-0.188-0.292-0.414-0.785-0.68-1.48l-0.48-0.797-0.762-0.961c-0.156-0.215-0.504-0.441-1.039-0.679-0.559-0.321-0.934-0.547-1.117-0.68l-0.121-0.082c0.105 0.133 0.664 0.668 1.679 1.601 0.641 0.504 1.078 1.172 1.321 2 0.343 1.012 0.824 1.918 1.437 2.719 0.055 0.055 0.442 0.641 1.16 1.762 0.457 0.719 0.867 1.265 1.242 1.637 0.266 0.269 0.692 0.574 1.282 0.921z" inkscape:connector-curvature="0"/>
      <path id="path594" style="fill-rule:evenodd;fill:#000000;fill-opacity:.2" d="m15.574 26.401c0.028 0.027 0.375 0.148 1.039 0.363l0.403 0.16-0.723-0.32c-0.559-0.293-0.984-0.496-1.277-0.602 0.187 0.188 0.371 0.32 0.558 0.399z" inkscape:connector-curvature="0"/>
      <path id="path596" style="fill-rule:evenodd;fill:#ffffff;fill-opacity:.2" d="m15.574 26.401c0.028 0.027 0.375 0.148 1.039 0.363l0.403 0.16-0.723-0.32c-0.559-0.297-0.984-0.496-1.277-0.602 0.187 0.188 0.371 0.32 0.558 0.399z" inkscape:connector-curvature="0"/>
      <path id="path598" style="fill-rule:evenodd;fill:#ffffff;fill-opacity:.2" d="m17.934 31.244c-0.266 0-0.454 0.039-0.559 0.117 0.027 0.133 0.199 0.254 0.52 0.36 0.371 0.137 0.574 0.215 0.601 0.242l0.598 0.16 0.121-0.121c-0.426-0.48-0.852-0.734-1.281-0.758z" inkscape:connector-curvature="0"/>
      <path id="path600" style="fill-rule:evenodd;fill:#ffffff;fill-opacity:.2" d="m15.734 29.963c-0.05 0.188 0.055 0.348 0.321 0.481l0.32-0.122c-0.078-0.293-0.293-0.414-0.641-0.359z" inkscape:connector-curvature="0"/>
      <path id="path602" style="fill-rule:evenodd;fill:#ffffff;fill-opacity:.2" d="m17.453 30.041c0.027-0.32-0.172-0.453-0.598-0.398v0.281l0.598 0.117z" inkscape:connector-curvature="0"/>
      <path id="path604" style="fill-rule:evenodd;fill:#ffffff;fill-opacity:.2" d="m14.215 28.924c-0.082 0.078-0.067 0.16 0.039 0.238 0.133 0.082 0.215 0.133 0.242 0.16l0.277-0.398h-0.558z" inkscape:connector-curvature="0"/>
      <path id="path606" style="fill-rule:evenodd;fill:#ffffff;fill-opacity:.2" d="m11.375 20.361-0.199 0.403-0.481-0.203 0.2 0.16 1.558 0.402c0.055-0.293 0-0.652-0.16-1.082-0.078-0.238-0.227-0.586-0.438-1.039-0.054-0.16-0.121-0.387-0.199-0.68-0.109-0.293-0.215-0.507-0.32-0.64-0.348-0.508-1.082-0.813-2.203-0.918l-0.719-0.082c-0.293-0.028-0.531-0.078-0.719-0.16-0.242-0.133-0.441-0.293-0.601-0.481l-1.84-1.719c-0.16-0.16-0.492-0.441-1-0.839-0.426-0.399-0.664-0.762-0.719-1.082-0.027 0.296 0.106 0.843 0.399 1.64 0.109 0.32 0.453 0.949 1.043 1.883 0.476 0.664 0.757 1.051 0.839 1.16 0.559 0.637 1.372 1.293 2.438 1.957l1.68 0.961c-0.399-0.348-0.586-0.601-0.559-0.758 0.055-0.187 0.387-0.203 1-0.043 0.238 0.11 0.441 0.266 0.602 0.481 0.156 0.293 0.293 0.519 0.398 0.679z" inkscape:connector-curvature="0"/>
      <path id="path608" style="fill-rule:evenodd;fill:#ffffff;fill-opacity:.2" d="m9.375 19.244c-0.027 0.157 0.16 0.41 0.559 0.758l0.761 0.559 0.481 0.203 0.199-0.403c-0.105-0.16-0.242-0.386-0.398-0.679-0.161-0.215-0.364-0.371-0.602-0.481-0.613-0.16-0.945-0.144-1 0.043z" inkscape:connector-curvature="0"/>
      <path id="path610" style="fill-rule:evenodd;fill:#ffffff;fill-opacity:.2" d="m9.375 19.244c-0.027 0.157 0.16 0.41 0.559 0.758l0.761 0.559 0.481 0.203 0.199-0.403c-0.105-0.16-0.242-0.386-0.398-0.679-0.161-0.215-0.364-0.371-0.602-0.481-0.613-0.16-0.945-0.144-1 0.043z" inkscape:connector-curvature="0"/>
    </g>
  </g>
<metadata><rdf:RDF><cc:Work><dc:format>image/svg+xml</dc:format><dc:type rdf:resource="http://purl.org/dc/dcmitype/StillImage"/><cc:license rdf:resource="http://creativecommons.org/licenses/publicdomain/"/><dc:publisher><cc:Agent rdf:about="http://openclipart.org/"><dc:title>Openclipart</dc:title></cc:Agent></dc:publisher></cc:Work><cc:License rdf:about="http://creativecommons.org/licenses/publicdomain/"><cc:permits rdf:resource="http://creativecommons.org/ns#Reproduction"/><cc:permits rdf:resource="http://creativecommons.org/ns#Distribution"/><cc:permits rdf:resource="http://creativecommons.org/ns#DerivativeWorks"/></cc:License></rdf:RDF></metadata></svg>
